<?xml version="1.0" encoding="utf-8"?>
<!-- Generator: Adobe Illustrator 21.0.0, SVG Export Plug-In . SVG Version: 6.00 Build 0)  -->
<svg version="1.1" id="Capa_1" xmlns="http://www.w3.org/2000/svg" xmlns:xlink="http://www.w3.org/1999/xlink" x="0px" y="0px"
	 viewBox="0 0 168.6 104.6" style="enable-background:new 0 0 168.6 104.6;" xml:space="preserve">
<style type="text/css">
	.st0{fill:#050505;}
</style>
<g>
	<g>
		<path class="st0" d="M59.6,11.2c0.5,1.4,0.9,2.8,1.2,4.1C60.5,14,60.1,12.6,59.6,11.2z"/>
		<path class="st0" d="M93,33.9c-2.3,0-3.8-0.8-8.3-0.8C89.1,33,90.7,33.8,93,33.9z"/>
		<path class="st0" d="M61.4,18c0.2,0.9,0.3,1.7,0.4,2.6C61.7,19.7,61.6,18.8,61.4,18z"/>
		<path class="st0" d="M60.9,15.3c0.2,0.9,0.4,1.8,0.5,2.7C61.3,17.1,61.1,16.2,60.9,15.3z"/>
		<path class="st0" d="M62,27.6c0,0.7-0.1,1.4-0.1,2.1C61.9,29,62,28.3,62,27.6z"/>
		<path class="st0" d="M62,26.5c0-0.7,0-1.5,0-2.3C62,25,62,25.7,62,26.5z"/>
		<path class="st0" d="M98.1,32.8c-2,0.1-1.2,0.9-4.5,1c-0.2,0-0.4,0-0.6,0c-2.4,0-3.9-0.8-8.3-0.8c-1.1,0-2.4,0.1-3.9,0.2
			c-8.2,0.7-13.1,3.1-20.7,5.8c0.3-1.4,1.3-4.8,1.8-9.4c0.1-0.7,0.1-1.4,0.1-2.1c0-0.4,0-0.7,0-1.1c0-0.7,0-1.5,0-2.3
			c0-1.2-0.1-2.4-0.3-3.7c-0.1-0.8-0.2-1.7-0.4-2.6c-0.2-0.9-0.3-1.8-0.5-2.7c-0.3-1.4-0.7-2.7-1.2-4.1s-1.1-2.8-1.8-4.3
			c-2.8-0.1-4.5-0.3-4.5-0.3C63,23.2,58,38.5,57.3,41.9c7.6-2.8,12.5-5.1,20.7-5.8c8.2-0.7,9.6,0.7,12.8,0.6c3.4-0.1,2.5-0.9,4.5-1
			c2.3-0.1,6.9,1.5,9.6,3.1c0,0,0.1-1.6,0.1-4c-0.1,0-0.1,0-0.1-0.1C102.5,33.4,99.9,32.7,98.1,32.8z"/>
		<path class="st0" d="M98.3,32.5c-2.2,0.4-1.3,1.2-4.7,1.3c-0.2,0-0.4,0-0.6,0c0.2,0,0.4,0,0.6,0c3.4-0.1,2.5-0.9,4.5-1
			c1.7-0.1,4.4,0.6,6.9,1.7c0.1,0,0.1,0,0.1,0.1c0-0.1,0-0.2,0-0.4C102.8,33.3,100,32.4,98.3,32.5z"/>
		<path class="st0" d="M80.8,33.3c1.5-0.1,2.8-0.2,3.9-0.2C83.6,33.1,82.3,33.1,80.8,33.3z"/>
	</g>
	<g>
		<path class="st0" d="M86.8,7.6c-0.1-0.9-0.9-1.5-1.7-1.3c-0.9,0.1-1.5,0.9-1.3,1.7c0.1,0.9,0.9,1.5,1.7,1.3
			C86.3,9.2,86.9,8.5,86.8,7.6z"/>
		<path class="st0" d="M109.2,10.7c-2.2-7-5.2-10.2-7.6-10.4c-1.2-0.1-2.5,0.4-3.6,0.4c-1.3,0-1.9-0.6-3.2-0.7
			c-2.5-0.1-5,0.9-8.2,1.2c-8,0.7-27.3-0.4-27.3-0.4c0.6,1.2,1.2,2.2,1.7,3.4c0.4,1,0.9,2,1.3,3.2c5.4,14,1.5,26,0.9,28.9
			c7.6-2.8,12.5-5.1,20.7-5.8c7.9-0.9,9.3,0.6,12.7,0.4c3.4-0.1,2.5-0.9,4.5-1c1-0.1,2.3,0.1,3.8,0.6c1,0.3,1.9,0.6,2.9,1
			c1,0.4,2,0.9,2.9,1.5C110.7,32.8,111.4,17.7,109.2,10.7z M97.5,20c-0.3-0.1-0.7-0.4-0.9-0.3c-0.1,0-0.4,0.4-0.7,0.9
			c-1,1.6-2.9,4.7-7.7,5.4h-0.3h-0.3c-5,0.6-7.4-1.7-8.9-3.1c-0.3-0.4-0.7-0.7-0.9-0.7s-0.4,0.3-0.7,0.6l-0.4,0.6l-0.6-5.5l4.7,1.9
			l0.6,0.3l-0.6,0.3c-0.4,0.3-0.7,0.4-0.7,0.6c0,0.4,2.2,2.5,4.5,2.5c1.2-0.1,1.3-1,1-4.1c0-0.9-0.3-2.8-0.4-4.7
			c-0.9,0.1-1.9,0.4-2.6,0.6c-0.3,0-0.3,0.1-0.4,0.3c-0.1,0.1-0.3,0.3-0.9,0.4c-0.4,0.1-0.9,0-1.2-0.3c-0.3-0.3-0.4-0.6-0.6-0.9
			v-0.3v-0.3c0-0.4,0.1-0.7,0.3-1c0.3-0.3,0.6-0.6,1-0.6c0.6,0,0.7,0.1,1,0.3c0.1,0.1,0.3,0.1,0.4,0.1c0.7,0,1.7,0,2.6-0.1
			c0-0.9-0.1-1.5-0.1-1.9c-0.6,0-1-0.3-1.5-0.6c-0.7-0.6-1.2-1.3-1.3-2.2c-0.1-0.7,0-1.6,0.6-2.3c0.6-0.7,1.3-1.2,2.2-1.3
			c0.7-0.1,1.6,0,2.3,0.6c0.7,0.6,1.2,1.3,1.3,2.2c0.1,0.7,0,1.6-0.6,2.3c-0.3,0.4-0.7,0.9-1.2,1c0,0.4,0.1,1,0.3,1.9
			c0.9-0.1,1.9-0.4,2.6-0.6c0.3,0,0.3-0.1,0.4-0.3s0.3-0.3,0.9-0.4c0.4-0.1,0.9,0,1.2,0.3c0.3,0.3,0.4,0.6,0.6,0.9v0.3V13
			c0,0.4-0.1,0.7-0.3,1c-0.3,0.3-0.6,0.6-1,0.6c-0.6,0-0.7-0.1-1-0.3c-0.1-0.1-0.3-0.1-0.4-0.1c-0.7,0-1.7,0-2.6,0.1
			c0.3,1.9,0.7,3.8,0.9,4.7c0.6,3.1,0.9,3.8,2,3.6c2.2-0.6,3.6-3.2,3.6-3.6c0-0.1-0.4-0.3-0.9-0.3h-0.6l4.5-3.5l0.9,4.8l0.4,0.4
			L97.5,20z"/>
	</g>
	<polygon class="st0" points="0,50.8 13.3,50.8 13.3,55 5.4,55 5.4,60.5 13,60.5 13,64.6 5.4,64.6 5.4,74.7 0,74.7 	"/>
	<path class="st0" d="M17.4,57.6c1.5-0.4,3.8-1.2,5.8-1.2c6.3,0,7.7,2.6,7.7,6.6v6.6c0,2.6,0,3.8,0.1,5.1h-5L26,72.2l0,0
		c-0.3,1.2-2.3,2.8-5,2.8c-3.4,0-5.5-2.2-5.5-5.4c0-6,7-6,8.9-6H26c0-3.5-2.5-3.5-3.4-3.5c-1.3,0-2.9,0.3-5,1.6L17.4,57.6z M26,66.1
		c-2.2,0-5.5,0.1-5.5,3.1c0,2.3,1.9,2.3,2.3,2.3c0.4,0,3.2,0,3.2-4.4V66.1z"/>
	<path class="st0" d="M35.4,49h5.4v10.5l0,0c0.6-1.6,2-2.9,4.7-2.9c4.5,0,6.3,3.9,6.3,8.7c0,5.7-2.3,9.6-6.3,9.6
		c-3.1,0-4.4-2-4.8-3.1l0,0c0,1.2,0,2.2-0.1,2.9h-5.1c0-0.9,0.1-1.7,0.1-4.1V49H35.4z M43.5,60.2c-2.2,0-2.8,2.6-2.8,5.5
		c0,2,0.4,5.2,2.8,5.2c2.5,0,2.6-3.5,2.6-5.2C46.1,62.9,45.9,60.2,43.5,60.2"/>
	<path class="st0" d="M71.2,67.2H60.7c0,2.2,1.3,4.1,4.4,4.1c1.9,0,3.6-0.7,5.1-1.5l0.1,4.1c-1.7,0.6-3.8,1-5.7,1
		c-6.3,0-9-3.8-9-9.3c0-4.8,2.8-9.2,7.9-9.2c1.6,0,7.7,0,7.7,9.3C71.2,65.8,71.2,67.2,71.2,67.2z M66.2,64.2c0-2.3-0.6-4.4-2.8-4.4
		c-2.8,0-2.8,3.5-2.8,4.4H66.2z"/>
	<path class="st0" d="M75.1,60.5c0-1.7,0-2.8-0.1-3.8h5c0,1,0.1,2.2,0.1,3.2l0,0c1.2-1.9,1.9-3.5,5-3.5h0.7v5.1
		c-0.6-0.1-1-0.1-1.7-0.1c-3.2,0-3.5,2.8-3.5,5.4v7.9h-5.4V60.5z"/>
	<polygon class="st0" points="89.7,50.8 102.9,50.8 102.9,55 95.1,55 95.1,60.5 102.6,60.5 102.6,64.6 95.1,64.6 95.1,74.7 
		89.7,74.7 	"/>
	<rect x="106.9" y="49" class="st0" width="5.4" height="25.8"/>
	<path class="st0" d="M118.2,57.6c1.5-0.4,3.8-1.2,5.8-1.2c6.3,0,7.7,2.6,7.7,6.6v6.6c0,2.6,0,3.8,0.1,5.1h-5l-0.1-2.5l0,0
		c-0.3,1.2-2.3,2.8-5,2.8c-3.4,0-5.5-2.2-5.5-5.4c0-6,7-6,8.9-6h1.6c0-3.5-2.5-3.5-3.4-3.5c-1.3,0-2.9,0.3-5,1.6L118.2,57.6z
		 M126.9,66.1c-2.2,0-5.5,0.1-5.5,3.1c0,2.3,1.9,2.3,2.3,2.3c0.4,0,3.2,0,3.2-4.4C126.9,67.1,126.9,66.1,126.9,66.1z"/>
	<path class="st0" d="M152.2,72.5c0,2.6,0,9.8-9,9.8c-2.5,0-4.7-0.6-6.4-1l0.1-4.4c0.9,0.4,3.2,1.6,5.7,1.6c4.2,0,4.5-3.2,4.5-6.9
		l0,0c-0.3,1-1.7,3.2-4.7,3.2c-3.1,0-6.3-2.2-6.3-8.9c0-5.7,2.3-9.2,6.4-9.2c3.1,0,4.4,2,4.8,3.1l0,0l0.1-2.9h5.1
		c0,0.9-0.1,1.7-0.1,4.1v11.5H152.2z M144.1,70.9c2.2,0,2.8-2.6,2.8-5.1c0-2-0.4-5.2-2.6-5.2c-2.5,0-2.6,3.5-2.6,5.2
		C141.4,67.1,141.7,70.9,144.1,70.9"/>
	<path class="st0" d="M167.4,61.3c-1.5-0.6-2.8-1-4.4-1c-1.5,0-2,0.7-2,1.3c0,1.2,0.7,1.5,3.8,2.6c1.9,0.7,3.8,1.9,3.8,5.2
		c0,3.9-2.9,5.5-6.6,5.5c-1.6,0-3.9-0.1-5.8-0.9l0.1-4.2c1.3,0.7,2.9,1.2,4.5,1.2c2.5,0,2.8-0.9,2.8-1.7c0-0.7-1.5-1.2-3.8-2
		c-1.9-0.7-3.8-2.3-3.8-5.5c0-1.9,1.3-5.4,6.7-5.4c2.2,0,4.1,0.4,5,0.7L167.4,61.3z"/>
	<path class="st0" d="M10.1,89.8c0.7-0.4,1.9-1,2.6-1c0.6,0,0.7,0.4,0.7,0.7c0.1,1,0.4,2.5,0.6,4.4c0.3,1.9,0.4,3.9,0.6,5.5
		c-0.4,0.1-1.3,0.3-1.9,0.6c-0.1-2-0.7-7-1.2-8.6c-0.1-0.4-0.3-0.9-0.7-0.9c-0.3,0-0.7,0.1-1,0.4L10.1,89.8z M15.3,96.4
		c0.7-1.5,2.3-4.7,2.3-5.7c0-0.4-0.1-0.6-0.4-0.6c-0.1,0-0.6,0-0.7,0.1l0.1-1c0.6-0.3,1.6-0.6,2.5-0.6c0.6,0,0.6,0.3,0.6,0.6
		c0,1.5-2.6,6.7-4.1,8.9L15.3,96.4z"/>
	<path class="st0" d="M25.7,98.9c-0.9,0.6-1.9,0.9-2.9,0.9c-0.6,0-0.7-0.4-0.7-0.9c0-0.4,0.7-7,0.7-7.6c0-0.4-0.1-0.7-0.4-0.7
		c-0.4,0-0.9,0.1-1.3,0.4l0.1-1c0.9-0.4,2.6-1,3.4-1c0.4,0,0.4,0.3,0.4,0.6c0,0.4-0.7,7-0.7,8.2c0,0.6,0.1,0.7,0.4,0.7
		c0.3,0,0.7-0.1,1.2-0.4L25.7,98.9z M24.5,85.5c0.6,0,1,0.3,1,1c0,0.7-0.6,1.2-1.3,1.2c-0.7,0-1.2-0.3-1.2-1
		C23,85.7,23.5,85.5,24.5,85.5L24.5,85.5z"/>
	<path class="st0" d="M30,99.7c-0.6,0-1.9-0.1-2.6-0.3c0.1-0.6,0.1-1.2,0.3-1.9h0.1c0.6,0.9,1.6,1.2,2.3,1.3L30,99.7z M30.9,98.6
		c0.9-0.1,1.5-0.6,1.5-1.6c0-0.6-0.1-0.9-0.7-1.3c-0.4-0.3-0.9-0.6-1.7-1c-1.3-0.7-2-1.5-2-2.9c0-1.9,1.7-2.8,3.5-2.9L31.2,90
		c-0.7,0-1.5,0.6-1.5,1.5c0,0.4,0.1,0.7,0.4,1c0.3,0.3,0.7,0.6,1.5,0.9c1.6,0.9,2.5,1.5,2.5,3.1c0,2-1.6,3.1-3.5,3.2L30.9,98.6z
		 M32.2,88.8c0.7,0,1.6,0.1,2.3,0.3c-0.1,0.4-0.3,1.2-0.3,2h-0.1C33.8,90.3,33,90,32.4,90L32.2,88.8z"/>
	<path class="st0" d="M40.7,98.9c-0.9,0.6-1.9,0.9-2.9,0.9c-0.6,0-0.7-0.4-0.7-0.9c0-0.4,0.7-7,0.7-7.6c0-0.4-0.1-0.7-0.4-0.7
		c-0.4,0-0.9,0.1-1.3,0.4l0.1-1c0.9-0.4,2.6-1,3.4-1c0.4,0,0.4,0.3,0.4,0.6c0,0.4-0.7,7-0.7,8.2c0,0.6,0.1,0.7,0.4,0.7
		s0.7-0.1,1.2-0.4L40.7,98.9z M39.5,85.5c0.6,0,1,0.3,1,1c0,0.7-0.6,1.2-1.3,1.2s-1.2-0.3-1.2-1C37.9,85.7,38.5,85.5,39.5,85.5
		L39.5,85.5z"/>
	<path class="st0" d="M42.4,85.3c0.7-0.3,2.2-0.7,3.1-0.7c0.6,0,0.6,0.4,0.6,0.9c0,0.4-1,10.5-1,12.2c0,0.6,0.3,0.9,0.9,0.9
		c0,0.3-0.1,0.9-0.1,1.2c-1.3,0-2.2-0.3-2.9-0.4c0.1-1.5,0.4-5.1,0.7-7.6c0.1-1.6,0.3-4.1,0.3-4.8c0-0.6-0.1-0.9-0.4-0.9
		s-0.7,0.1-1.2,0.3L42.4,85.3z M46.7,98.6c0.6-0.1,1.5-0.4,1.9-1.2c0.6-0.9,1.2-2.3,1.2-4.8c0-1.5-0.3-2.3-1.2-2.3
		c-0.7,0-1.6,0.7-2.2,1.2l0.1-1.5c0.6-0.4,1.7-1.5,3.1-1.5c1.5,0,2.2,1.2,2.2,3.5c0,2.6-0.6,4.2-1.5,5.5c-1,1.5-2.5,1.9-3.8,1.9
		L46.7,98.6z"/>
	<path class="st0" d="M57.4,98.9c-0.9,0.6-1.9,0.9-2.8,0.9c-0.6,0-0.7-0.4-0.7-0.9c0-0.6,0.4-4.4,0.6-6.9c0.3-2.5,0.4-4.7,0.4-5.2
		c0-0.3,0-0.7-0.4-0.7c-0.3,0-0.9,0.1-1.3,0.3l0.1-1c0.7-0.3,2.2-0.7,3.1-0.7c0.6,0,0.7,0.4,0.7,0.9c0,0.3-0.4,3.5-0.6,5.8
		c-0.3,3.1-0.4,5.2-0.4,6.1c0,0.4,0,0.9,0.3,0.9c0.3,0,0.9-0.1,1.2-0.4L57.4,98.9z"/>
	<path class="st0" d="M58.5,89.8c0.7-0.4,1.7-1,2.6-1c0.6,0,0.7,0.4,0.7,0.7c0.3,1.6,0.9,6.3,0.9,7.1c-0.3,0.6-0.9,1.6-1.3,2.2
		c-0.1,0-0.1,0-0.3-0.1c-0.1-1.2-0.7-5.5-1.2-7.4c-0.1-0.4-0.3-0.9-0.6-0.9c-0.3,0-0.7,0.1-1.2,0.4L58.5,89.8z M58.6,103.8
		c1.7-1.2,3.6-4.2,5.1-7c1-1.7,2.3-5.1,2.3-6.1c0-0.3-0.1-0.4-0.4-0.4c-0.1,0-0.4,0-0.7,0.1l0.1-0.9c0.7-0.3,1.7-0.7,2.6-0.7
		c0.4,0,0.6,0.3,0.6,0.7c0,1.5-2.5,6.4-3.2,8c-1.2,2.3-2.6,5-3.9,7C60.2,104.3,59.5,104,58.6,103.8L58.6,103.8z"/>
	<path class="st0" d="M79.6,98.7c-1.2,0.7-2.2,1-3.4,1c-1,0-1.5-0.7-1.5-1.7c0-0.4,0.6-6.4,0.7-7.7c-0.3,0-0.9,0-1.6,0
		c0.1-0.4,0.1-0.7,0.1-1c0.4,0,0.9,0,1.3,0c0.3-0.1,0.4-0.3,0.4-0.4c0.1-0.7,0.3-1.6,0.7-1.9c0.3-0.1,1-0.1,1.6-0.3
		c-0.1,0.4-0.3,1.7-0.4,2.6c0.4,0,1.3,0,2.8,0c-0.1,0.3-0.1,0.7-0.3,1.2c-1.3,0-2.5,0-2.6,0.1c-0.1,0.3-0.3,1.6-0.4,3.4
		c-0.1,1.6-0.3,3.2-0.3,3.5c0,1,0.3,1.2,0.9,1.2c0.4,0,1-0.1,1.9-0.7V98.7z"/>
	<path class="st0" d="M81.7,85.3c0.7-0.3,2.3-0.7,3.1-0.7c0.6,0,0.7,0.4,0.7,0.9c0,0.3-0.3,3.1-0.6,6.4c-0.3,2.9-0.6,6.4-0.4,7.4
		c-0.7,0.1-1.6,0.4-2.2,0.6c0.3-1.3,0.6-4.7,0.7-7.1c0.3-2.5,0.4-5.1,0.4-5.8c0-0.4-0.1-0.9-0.4-0.9s-0.7,0.1-1.2,0.3L81.7,85.3z
		 M85.7,90.3c0.7-0.6,2-1.5,3.6-1.5c1.2,0,1.5,0.9,1.5,1.6c0,0.6-0.7,6.3-0.7,7.4c0,0.3,0,0.4,0.3,0.4c0.3,0,0.7-0.1,1.3-0.6
		l-0.1,1.2c-0.6,0.4-1.7,0.9-2.8,0.9c-0.7,0-0.9-0.6-0.9-1c0-0.6,0.9-6.7,0.9-7.4c0-0.4-0.1-0.9-0.7-0.9c-0.7,0-1.7,0.7-2.3,1.2
		L85.7,90.3z"/>
	<path class="st0" d="M98,90c-0.9,0.1-2.3,1.5-2.3,5.7c0,2.2,1.2,2.8,2.2,2.8s1.9-0.3,2.9-1l-0.1,1.3c-1,0.7-2.2,1-3.6,1
		c-2.2,0-3.6-1-3.6-3.8c0-5.5,2.8-7,4.5-7.1L98,90z M101.6,91.1c0,2.9-2.9,3.8-5.2,3.8c0-0.1,0-0.3,0-0.6c0-0.1,0-0.3,0-0.6
		c1.9,0,3.4-0.7,3.4-2.5c0-0.6-0.1-1.5-1-1.5c0-0.3,0.1-0.9,0.1-1.2c0.9,0,1.5,0.1,1.9,0.6C101.3,89.8,101.6,90.4,101.6,91.1
		L101.6,91.1z"/>
	<path class="st0" d="M107.8,85.3c0.7-0.3,2.2-0.7,3.1-0.7c0.6,0,0.6,0.4,0.6,0.9c0,0.4-1,10.5-1,12.2c0,0.6,0.3,0.9,0.9,0.9
		c0,0.3-0.1,0.9-0.1,1.2c-1.3,0-2.2-0.3-2.9-0.4c0.1-1.5,0.4-5.1,0.7-7.6c0.1-1.6,0.3-4.1,0.3-4.8c0-0.6-0.1-0.9-0.4-0.9
		c-0.3,0-0.7,0.1-1.2,0.3L107.8,85.3z M112,98.6c0.6-0.1,1.5-0.4,1.9-1.2c0.6-0.9,1.2-2.3,1.2-4.8c0-1.5-0.3-2.3-1.2-2.3
		c-0.7,0-1.6,0.7-2.2,1.2l0.1-1.5c0.6-0.4,1.7-1.5,3.1-1.5c1.5,0,2.2,1.2,2.2,3.5c0,2.6-0.6,4.2-1.5,5.5c-1,1.5-2.5,1.9-3.8,1.9
		L112,98.6z"/>
	<path class="st0" d="M123.6,90c-0.9,0.1-2.3,1.5-2.3,5.7c0,2.2,1.2,2.8,2.2,2.8s1.9-0.3,2.9-1l-0.1,1.3c-1,0.7-2.2,1-3.6,1
		c-2.2,0-3.6-1-3.6-3.8c0-5.5,2.8-7,4.5-7.1L123.6,90z M127.3,91.1c0,2.9-2.9,3.8-5.2,3.8c0-0.1,0-0.3,0-0.6c0-0.1,0-0.3,0-0.6
		c1.9,0,3.4-0.7,3.4-2.5c0-0.6-0.1-1.5-1-1.5c0-0.3,0.1-0.9,0.1-1.2c0.9,0,1.5,0.1,1.9,0.6C127,89.8,127.3,90.4,127.3,91.1
		L127.3,91.1z"/>
	<path class="st0" d="M131.1,99.7c-0.6,0-1.9-0.1-2.6-0.3c0.1-0.6,0.1-1.2,0.3-1.9h0.1c0.6,0.9,1.6,1.2,2.3,1.3L131.1,99.7z
		 M132.1,98.6c0.9-0.1,1.5-0.6,1.5-1.6c0-0.6-0.1-0.9-0.7-1.3c-0.4-0.3-0.9-0.6-1.7-1c-1.3-0.7-2-1.5-2-2.9c0-1.9,1.7-2.8,3.5-2.9
		l-0.1,1.2c-0.7,0-1.5,0.6-1.5,1.5c0,0.4,0.1,0.7,0.4,1c0.3,0.3,0.7,0.6,1.5,0.9c1.6,0.9,2.5,1.5,2.5,3.1c0,2-1.6,3.1-3.5,3.2
		L132.1,98.6z M133.4,88.8c0.7,0,1.6,0.1,2.3,0.3c-0.1,0.4-0.3,1.2-0.3,2h-0.1c-0.3-0.9-1.2-1.2-1.7-1.2L133.4,88.8z"/>
	<path class="st0" d="M143,98.7c-1.2,0.7-2.2,1-3.4,1c-1,0-1.5-0.7-1.5-1.7c0-0.4,0.6-6.4,0.7-7.7c-0.3,0-0.9,0-1.6,0
		c0.1-0.4,0.1-0.7,0.1-1c0.4,0,0.9,0,1.3,0c0.3-0.1,0.4-0.3,0.4-0.4c0.1-0.7,0.3-1.6,0.7-1.9c0.3-0.1,1-0.1,1.6-0.3
		c-0.1,0.4-0.3,1.7-0.4,2.6c0.4,0,1.3,0,2.8,0c-0.1,0.3-0.1,0.7-0.3,1.2c-1.3,0-2.5,0-2.6,0.1c-0.1,0.3-0.3,1.6-0.4,3.4
		c-0.1,1.6-0.3,3.2-0.3,3.5c0,1,0.3,1.2,0.9,1.2c0.4,0,1-0.1,1.9-0.7V98.7z"/>
</g>
</svg>
