<?xml version="1.0" encoding="utf-8"?>
<!-- Generator: Adobe Illustrator 21.0.0, SVG Export Plug-In . SVG Version: 6.00 Build 0)  -->
<svg version="1.1" id="Capa_1" xmlns="http://www.w3.org/2000/svg" xmlns:xlink="http://www.w3.org/1999/xlink" x="0px" y="0px"
	 viewBox="0 0 199.1 68" style="enable-background:new 0 0 199.1 68;" xml:space="preserve">
<g>
	<g>
		<path d="M17.2,17c2.2,2.1,4.5,4.2,6.7,6.2c3.3,3.1,6.6,6.1,9.8,9.2c0.1,0.1,0.2,0.2,0.4,0.4c5.6-5.3,11.2-10.5,16.9-15.8l0,0
			c0,0.1,0.1,0.4,0.1,0.5c0,11,0,22.1,0,33.1c0,0.1,0,0.2,0,0.4l0,0c-1.1,0-2.3,0-3.5,0c0-8.7,0-17.5,0-26.3
			C42.9,29,38.5,33.1,34,37.4c-4.4-4.2-8.9-8.3-13.4-12.6c0,8.8,0,17.5,0,26.3c-1.2,0-2.3,0-3.5,0l0,0c0-0.1,0-0.4,0-0.5
			c0-10.9,0-21.9,0-32.7C17,17.5,17.2,17.3,17.2,17L17.2,17z"/>
		<path d="M13.6,28.5c-0.1,0.2-0.2,0.5-0.4,0.9c-1.1-0.7-2.3-1.5-3.3-2.2c-5.3-3.9-8.4-9-9.5-15.5c-0.2-1.7-0.2-3.4-0.4-5
			c-0.1-2,0-4,0-6c0-0.4,0.1-0.5,0.5-0.5c2.3,0,4.6,0,7,0c5.7,0.1,11,1.7,15.5,5.5c2.6,2.1,4.5,4.8,6.1,7.6v0.1
			c-0.2,0.1-0.5,0.1-0.7,0.2c-0.1-0.2-0.2-0.4-0.4-0.6C24.5,6.8,19.2,3,12.3,1.4C10.4,1,8.6,0.8,6.6,0.8s-3.8,0-5.7,0
			c0,0.1,0,0.2,0,0.4c0,2.2-0.1,4.3,0,6.5c0.5,9.2,4.4,16.1,12.5,20.6C13.4,28.4,13.5,28.4,13.6,28.5z"/>
		<path d="M39.6,13.6c-0.2-0.1-0.4-0.1-0.6-0.2c0,0-0.1,0-0.2-0.1c0.7-1.1,1.3-2.2,2.2-3.3c3.5-4.9,8.3-8.1,14.3-9.3
			c1.8-0.4,3.7-0.5,5.5-0.6c2.2-0.1,4.4,0,6.6,0c0.1,0,0.4,0,0.6,0c0,0.2,0,0.4,0,0.5c0,2.6,0.1,5.3,0,7.8c-0.4,7.3-3.2,13.3-8.9,18
			c-1.3,1.1-2.8,2-4.3,2.9c-0.1-0.4-0.2-0.6-0.4-0.9c0.1-0.1,0.2-0.1,0.4-0.2c6.5-3.5,10.4-8.9,12-16.1c0.4-1.7,0.6-3.5,0.6-5.4
			c0-2,0-4,0-6c-0.1,0-0.2,0-0.4,0c-2.2,0-4.4-0.1-6.6,0c-9.2,0.6-16,4.6-20.5,12.6C39.7,13.4,39.6,13.5,39.6,13.6z"/>
		<path d="M29.4,54.8c-0.9,1.3-1.7,2.7-2.7,3.9c-3.7,4.8-8.5,7.7-14.4,8.8c-1.5,0.2-2.9,0.4-4.4,0.5c-2.4,0.1-4.8,0-7.2,0
			c-0.1,0-0.2,0-0.4,0c0-0.1,0-0.4,0-0.5c0-2.3,0-4.5,0-6.8C0.2,54.9,1.9,49.5,5.5,45c2.2-2.6,4.8-4.6,7.7-6.2
			c0.1,0.2,0.2,0.5,0.2,0.7c-0.1,0.1-0.2,0.1-0.5,0.2C6.6,43.3,2.7,48.7,1.2,55.6c-0.4,1.8-0.6,3.8-0.6,5.6c0,2,0,3.9,0,5.9
			c0.1,0,0.1,0,0.2,0c2.3,0,4.6,0.1,7,0c6.3-0.2,11.8-2.6,16.4-7.1c1.5-1.5,2.8-3.2,3.8-5.1C28.5,54.4,28.5,54.4,29.4,54.8z"/>
		<path d="M67.2,67.2c0-0.1,0-0.1,0-0.1c0-2.8,0.1-5.5-0.1-8.3c-0.4-4.5-1.8-8.5-4.5-12.2c-2.1-2.8-4.6-5-7.7-6.7
			c-0.1-0.1-0.2-0.1-0.4-0.2c0,0,0,0-0.1-0.1c0.1-0.2,0.1-0.5,0.2-0.7c0.7,0.4,1.3,0.9,2.1,1.2c5.4,3.5,8.9,8.2,10.5,14.4
			c0.5,2,0.7,4,0.7,6c0,2.3,0,4.5,0,6.8c0,0.2,0,0.4,0,0.6c-0.1,0-0.2,0-0.4,0c-2.6,0-5.1,0-7.7,0C52,67.6,45.6,64.4,41,58.1
			c-0.7-1.1-1.5-2.2-2.2-3.3c0.4-0.1,0.6-0.2,0.9-0.4c0.1,0.1,0.1,0.2,0.2,0.4c3.5,6.5,9,10.4,16.2,12c1.6,0.4,3.3,0.4,5,0.5
			c1.8,0.1,3.7,0,5.6,0C66.9,67.2,67,67.2,67.2,67.2z"/>
		<path d="M51,51c2.6,0,4.5,1.7,5,3.5l0,0c0.1,0.4,0.1,0.9,0.2,0.9c0.2,0.1,0.7,0,1.2,0c0.2-1.7,1.1-3.1,2.6-3.8
			c0.9-0.5,1.8-0.7,2.7-0.6c0,1.7-0.6,3.2-2.1,4.2c-0.6,0.5-1.3,0.7-2.1,1c-0.2,0.1-0.4,0.1-0.4,0.5c0,0.2,0,0.6,0,0.9
			c1.7,0.2,2.9,1.1,3.8,2.4c0.5,0.9,0.9,2.1,0.7,2.8c-1.3,0-2.4-0.4-3.4-1.2c-1-0.9-1.6-2-1.7-3.2h-0.1c-0.4,0-0.7-0.1-1,0
			c-0.2,0.1-0.2,0.6-0.4,0.9c-0.6,2.1-2.6,3.5-4.8,3.5c-0.1,0-0.2,0-0.2,0c-0.4-2.3,1.3-4.4,4.4-5.3v-0.1c0-0.4,0.1-0.7,0-1
			s-0.6-0.2-0.9-0.4C52.6,55.4,51,53.5,51,51L51,51z M58.4,58.4c0,1.6,1.8,3.4,3.5,3.5C61.8,60.4,60.1,58.4,58.4,58.4z M55.4,55.4
			c-0.1-1.7-2.1-3.7-3.5-3.7C51.8,53.2,53.4,55.1,55.4,55.4z M55.4,58.4c-1.3-0.1-3.5,1.8-3.5,3.5C53.5,61.7,55.2,60.1,55.4,58.4z
			 M62,51.7c-1.8,0.1-3.8,2.2-3.5,3.7C60.3,55.1,61.6,53.7,62,51.7z M57.4,56.2c-0.5,0-0.9,0-1.2,0c0,0.4,0,0.9,0,1.2
			c0.4,0,0.9,0,1.2,0C57.4,57.1,57.4,56.7,57.4,56.2z"/>
		<path d="M51,17c0-1.5,0.5-2.8,1.6-3.8c0.7-0.7,1.6-1.2,2.6-1.3c0.1,0,0.2-0.1,0.4-0.1v-0.1c0-0.4,0.1-0.7,0-1
			c-0.1-0.2-0.6-0.2-1-0.4c-2.2-0.6-3.7-2.9-3.5-5c1.1,0,2.1,0.2,2.9,0.9c1.2,0.7,2,1.8,2.2,3.3c0,0.2,0.1,0.4,0.5,0.4
			c0.2,0,0.6,0,0.9,0c0.6-2.9,2.3-4.4,5.4-4.6c-0.1,0.6-0.1,1.1-0.2,1.5c-0.6,2.1-1.8,3.3-3.9,3.8c-0.2,0-0.4,0.1-0.4,0.4
			c0,0.2,0,0.5,0,0.7v0.1c1.6,0.2,2.8,1,3.7,2.3c0.6,0.9,0.9,1.8,0.9,2.9c-1.3,0-2.4-0.4-3.5-1.2c-1-0.9-1.6-2-1.7-3.2h-0.1
			c-0.4,0-0.7-0.1-1,0s-0.2,0.6-0.4,1C55.1,16.2,52.4,17.3,51,17L51,17z M51.7,6c0.2,1.8,2.2,3.7,3.7,3.5C55.1,7.7,53.4,6.2,51.7,6z
			 M51.7,16.3c1.7-0.1,3.5-2.1,3.5-3.7C53.8,12.8,51.7,14.7,51.7,16.3z M62,16.3c-0.2-1.7-1.8-3.5-3.7-3.5
			C58.4,14.3,60.3,16.2,62,16.3z M62,6c-1.8,0.1-3.8,2.2-3.5,3.7C60.1,9.5,61.6,8,62,6z M56.2,10.6c0,0.5,0,0.9,0,1.2
			c0.4,0,0.9,0,1.2,0c0-0.4,0-0.9,0-1.2C57.1,10.6,56.7,10.6,56.2,10.6z"/>
		<path d="M17.2,17c-2.1,0.2-4.5-1.3-5.1-3.5c-0.1-0.2-0.1-0.6-0.2-0.9c-0.4,0-0.9,0-1.2,0c-0.2,1.6-1,2.8-2.3,3.7
			c-0.9,0.6-1.8,0.9-2.9,0.9c0-1.3,0.4-2.6,1.2-3.5c0.9-1,2-1.6,3.3-1.7c0-0.5,0-0.9,0-1.3c-1.6-0.2-2.9-1-3.8-2.4
			c-0.6-0.9-0.9-2-0.7-2.8c1.5,0,2.8,0.5,3.8,1.6c0.7,0.6,1.2,1.5,1.3,2.6c0,0.2,0.1,0.4,0.4,0.4c0.2,0,0.6,0,1,0
			c0.2-1.6,1-2.9,2.4-3.8c0.9-0.5,1.8-0.9,2.9-0.7C17,5.9,17,6.5,16.8,7.1c-0.6,1.8-2,2.9-3.9,3.4c-0.2,0-0.4,0.1-0.4,0.5
			c0,0.2,0,0.5,0,0.7v0.1c0.5,0.1,1,0.2,1.5,0.5c1.8,0.9,2.8,2.4,3.1,4.4C17,16.8,17.2,16.9,17.2,17L17.2,17z M9.7,9.7
			C9.5,7.9,7.5,5.9,6,6C6.3,7.9,8,9.6,9.7,9.7z M16.3,6c-1.8,0.2-3.7,2.1-3.5,3.7C14.3,9.6,16.1,7.9,16.3,6z M6,16.3
			c1.7-0.1,3.7-2.1,3.5-3.5C8,12.8,6,14.7,6,16.3z M12.6,12.6c0.1,2,2.3,3.7,3.7,3.5C16.1,14.5,14.3,12.8,12.6,12.6z M11.8,11.8
			c0-0.5,0-0.9,0-1.2c-0.4,0-0.9,0-1.2,0c0,0.5,0,0.9,0,1.2C10.9,11.8,11.3,11.8,11.8,11.8z"/>
		<path d="M17.2,51c-0.1,2-0.9,3.7-2.7,4.6c-0.5,0.2-1,0.4-1.5,0.5c-0.4,0.1-0.4,0.2-0.4,0.5s0,0.5,0,0.9c1.6,0.2,2.8,1,3.7,2.3
			c0.5,0.9,0.9,1.8,0.9,2.9c-0.9,0-1.6-0.1-2.2-0.5c-1.6-0.7-2.6-2-2.9-3.7c-0.1-0.4-0.2-0.5-0.5-0.4c-0.1,0-0.2,0-0.4,0
			c-0.4,0-0.5,0.1-0.5,0.5c-0.4,2.3-2.8,4.3-5.1,4c-0.5-2.2,1.5-4.4,4.4-5.3c0-0.4,0-0.9,0-1.2c-1.6-0.2-2.8-1-3.7-2.2
			c-0.6-0.9-0.9-1.8-0.9-3.1C6.8,51,8,51.3,9,52.2c1,0.9,1.6,2,1.7,3.3c0.5,0,0.9,0,1.2,0C12.4,52.6,14.1,51.1,17.2,51
			C17,51,17.2,51,17.2,51z M16.3,62c-0.2-1.8-2.2-3.8-3.7-3.5C12.8,60,14.5,61.8,16.3,62z M9.6,58.4c-1.6,0-3.7,2-3.5,3.7
			C8,61.6,9.6,60,9.6,58.4z M9.6,55.4c0.1-1.6-2.2-3.8-3.7-3.5C6.3,53.5,8,55.2,9.6,55.4z M16.3,51.7c-1.8,0.1-3.8,2.2-3.5,3.7
			C14.5,55.2,16.2,53.5,16.3,51.7z M11.8,57.4c0-0.5,0-0.9,0-1.2c-0.4,0-0.9,0-1.2,0c0,0.4,0,0.9,0,1.2
			C10.9,57.4,11.3,57.4,11.8,57.4z"/>
		<path d="M52,33.6c0.2,0,0.4,0,0.5,0c3.7,0,7.3,0,10.9,0c1.6,0,2.8-1,3.1-2.6c0-0.1,0-0.1,0-0.2c0.2,0,0.4,0,0.6,0
			c0,1.1-0.5,2-1.2,2.7c0.6,0,1.2,0,1.8,0c0,0.2,0,0.5,0,0.7c-0.6,0-1.2,0-1.8,0c0.9,0.9,1.3,1.7,1.2,2.8c-0.2,0-0.4,0-0.6,0
			c0-0.1-0.1-0.2-0.1-0.5c-0.2-1.5-1.3-2.3-2.8-2.3c-3.7,0-7.4,0-11.1,0C51.8,34.4,51.8,34.4,52,33.6z"/>
		<path d="M30.8,1.5c0-0.2,0-0.5,0-0.7c1.1,0,2,0.5,2.7,1.2c0-0.6,0-1.2,0-1.8c0.7-0.2,0.7-0.1,0.7,0.5c0,0.4,0,0.9,0,1.3
			C35,1.2,36,0.8,37.1,0.8c0,0.2,0,0.5,0,0.7c-0.1,0-0.2,0-0.4,0c-1.5,0.2-2.3,1.3-2.3,2.8c0,3.7,0,7.3,0,11.1c0,0.2,0,0.4,0,0.6
			c-0.2,0-0.5,0-0.7,0c0-0.2,0-0.4,0-0.6c0-3.7,0-7.2,0-10.9C33.6,3,32.7,1.6,30.8,1.5z"/>
		<path d="M33.6,52c0.7-0.1,0.7-0.1,0.7,0.5c0,3.5,0,7.2,0,10.7c0,1.7,0.9,3.1,2.8,3.3c0,0.2,0,0.4,0,0.6c-0.7,0.1-1.3-0.1-2.8-1.1
			c0,0.6,0,1.2,0,1.8c-0.2,0-0.5,0-0.7,0c0-0.6,0-1.2,0-2c-0.9,0.7-1.7,1.3-2.8,1.2c0-0.2,0-0.4,0-0.5c0.6-0.4,1.2-0.5,1.7-0.9
			c0.7-0.5,1-1.2,1-2.1c0-3.7,0-7.4,0-11.1C33.6,52.4,33.6,52.2,33.6,52z"/>
		<path d="M0.8,30.9c0.2,0,0.5,0,0.6,0c0.1,0.2,0.1,0.6,0.2,0.9c0.4,1.1,1.5,1.8,2.7,1.8c3.7,0,7.4,0,11.1,0c0.2,0,0.4,0,0.6,0
			c0,0.2,0,0.5,0,0.7c-0.2,0-0.4,0-0.6,0c-3.5,0-7.1,0-10.6,0c-1.7,0-3.2,0.6-3.4,2.8c-0.2,0-0.4,0-0.6,0c0-1.1,0.4-2,1.2-2.8
			c-0.5,0-1,0-1.3,0c-0.6,0-0.6,0-0.6-0.7c0.6,0,1.2,0,2,0C1.3,32.9,0.8,32,0.8,30.9z"/>
		<path d="M30.8,23.9c0.9-0.1,1.7,0.2,2.7,1.2c0-2.1,0-4.2,0-6.2c0.2,0,0.5,0,0.7,0c0,2.1,0,4.2,0,6.3c0.9-0.9,1.7-1.2,2.7-1.2
			c0.1,0.7,0.1,0.7-0.5,0.7c-1.2,0.1-2.2,1.2-2.2,2.4c0,0.7,0,1.5,0,2.2c-0.2,0-0.5,0-0.7,0c0-0.6,0-1.2,0-1.8c0-1.6-1-2.7-2.4-2.9
			C30.8,24.5,30.8,24.5,30.8,23.9z"/>
		<path d="M33.6,39.5c0.2,0,0.5,0,0.7,0c0,0.6,0,1.2,0,1.7c0,1.7,0.9,2.7,2.6,2.9c0.4,0,0.4,0.1,0.2,0.7c-1.1,0-2-0.4-2.7-1.2
			c0,0.2,0,0.4,0,0.5c0,1.5,0,3.1,0,4.5c0,0.6,0,0.6-0.7,0.6c0-1.8,0-3.7,0-5.6c-0.9,0.9-1.7,1.2-2.8,1.2c0-0.2,0-0.5,0-0.7
			c0.7,0,1.5-0.4,2-0.9s0.7-1.1,0.7-1.8C33.6,40.7,33.6,40.1,33.6,39.5z"/>
		<path d="M64.3,14.3c-0.2,0-0.5,0-0.6,0c0-0.2-0.1-0.5-0.1-0.7c-0.4-1.2-1.3-2-2.7-2.1c-0.6,0-1.2,0-1.8,0c0-0.2,0-0.4,0-0.7
			c0.2,0,0.5,0,0.9,0s0.9,0,1.2,0c1.3-0.1,2.3-1.1,2.6-2.4c0-0.1,0-0.1,0.1-0.2c0.2,0,0.4,0,0.6,0c0,1.1-0.5,2-1.2,2.7
			c0.7,0,1.2,0,1.8,0c0,0.2,0,0.5,0,0.7c-0.6,0-1.2,0-2,0C63.9,12.3,64.4,13.1,64.3,14.3z"/>
		<path d="M64.3,60c-0.2,0-0.5,0-0.6,0c0-0.2-0.1-0.5-0.1-0.7c-0.4-1.2-1.3-2-2.7-2.1c-0.6,0-1.2,0-2,0c0-0.2,0-0.5,0-0.7
			c0.6,0,1.2,0,1.8,0c1.3,0,2.4-0.9,2.8-2.1c0.1-0.2,0.1-0.5,0.1-0.7c0.2,0,0.4,0,0.6,0c0,1.1-0.5,2-1.2,2.7c0.6,0,1.2,0,1.8,0
			c0,0.2,0,0.5,0,0.7c-0.6,0-1.2,0-2,0C63.9,58.1,64.4,58.9,64.3,60z"/>
		<path d="M60,18c0,0.1,0,0.4,0,0.6c-1.1,0-2-0.4-2.7-1.2c0,0.7,0,1.3,0,2c-0.2,0-0.5,0-0.7,0c0-0.6,0-1.2,0-2
			c-0.9,0.7-1.7,1.3-2.8,1.2c0-0.2,0-0.4,0-0.6c0.1,0,0.2,0,0.4-0.1c1.5-0.2,2.4-1.3,2.4-2.8c0-0.6,0-1.2,0-1.8c0.2,0,0.5,0,0.7,0
			c0,0.6,0,1.2,0,1.8c0,1.1,0.5,2,1.5,2.4C59,17.8,59.5,17.9,60,18z"/>
		<path d="M56.5,58.9c0.2,0,0.5,0,0.7,0c0,0.6,0,1.1,0,1.6c-0.1,1.8,1.2,3.1,2.6,3.1c0.1,0,0.1,0,0.2,0c0,0.2,0,0.4,0,0.6
			c-1.1,0-2-0.4-2.8-1.2c0,0.7,0,1.3,0,2c-0.2,0-0.5,0-0.7,0c0-0.6,0-1.2,0-2c-0.9,0.7-1.7,1.2-2.8,1.2c0-0.2,0-0.4,0-0.6
			c0.1,0,0.1-0.1,0.2-0.1c1.5-0.2,2.4-1.3,2.4-2.9C56.5,60.1,56.5,59.5,56.5,58.9z"/>
		<path d="M13.1,57.2c0-0.2,0-0.5,0-0.7c0.6,0,1.2,0,1.8,0c1.3,0,2.4-0.7,2.8-2c0.1-0.2,0.1-0.5,0.1-0.7c0.2,0,0.4,0,0.6,0
			c0,1.1-0.5,2-1.2,2.8c0.6,0,1.2,0,1.8,0c0,0.2,0,0.5,0,0.7c-0.6,0-1.2,0-2,0c0.9,0.9,1.3,1.7,1.2,2.8c-0.2,0-0.4,0-0.6,0
			c0-0.2-0.1-0.5-0.1-0.7c-0.4-1.2-1.3-2-2.7-2.1C14.5,57.2,13.9,57.2,13.1,57.2z"/>
		<path d="M8,64.3c0-0.2,0-0.5,0-0.6c0.2,0,0.5-0.1,0.6-0.1c1.2-0.4,2.1-1.5,2.1-2.7c0-0.6,0-1.2,0-2c0.2,0,0.5,0,0.7,0
			c0,0.5,0,1,0,1.5c0,2,0.7,2.8,2.7,3.3h0.1c0,0.2,0,0.4,0,0.6c-1,0.1-1.7-0.2-2.8-1.2c0,0.6,0,1.2,0,2c-0.2,0-0.5,0-0.7,0
			c0-0.6,0-1.2,0-2C9.9,63.8,9.1,64.4,8,64.3z"/>
		<path d="M17.4,10.8c0.7,0,1.3,0,2,0c0,0.2,0,0.5,0,0.7c-0.6,0-1.2,0-2,0c0.9,0.9,1.3,1.7,1.2,2.8c-0.2,0-0.5,0-0.6,0
			c-0.2-0.5-0.4-1.1-0.6-1.6c-0.5-0.9-1.3-1.2-2.3-1.2c-0.6,0-1.2,0-1.8,0c0-0.2,0-0.4,0-0.7c0.5,0,0.9,0,1.3,0
			c1.7,0.1,3.2-0.7,3.4-2.7c0.2,0,0.4,0,0.6,0C18.6,9.1,18.1,9.9,17.4,10.8z"/>
		<path d="M14.2,18c0,0.2,0,0.4,0,0.6c-1.1,0-2-0.4-2.8-1.2c0,0.7,0,1.3,0,2c-0.2,0-0.5,0-0.7,0c0-0.6,0-1.2,0-2
			c-0.9,0.7-1.7,1.2-2.8,1.2c0-0.2,0-0.4,0-0.6c0.2,0,0.5-0.1,0.7-0.1c1.2-0.4,2.1-1.5,2.1-2.7c0-0.6,0-1.2,0-2c0.2,0,0.5,0,0.7,0
			c0,0.6,0,1.2,0,1.8c0,1.5,0.9,2.4,2.1,2.8C13.7,17.9,14,17.9,14.2,18z"/>
		<path d="M3.7,53.8c0.2,0,0.5,0,0.6,0c0.1,0.2,0.1,0.5,0.2,0.7c0.4,1.2,1.5,2,2.8,2c0.6,0,1.2,0,1.8,0c0,0.2,0,0.5,0,0.7
			c-0.5,0-1,0-1.5,0s-0.9,0-1.2,0.1c-1.1,0.4-1.7,1-2,2.1c0,0.1,0,0.4-0.1,0.5c-0.2,0-0.4,0-0.6,0c-0.2-0.7,0-1.5,1.1-2.7
			c-0.6,0-1.2,0-1.8,0c0-0.2,0-0.5,0-0.7c0.6,0,1.2,0,2,0C4.2,55.7,3.7,54.9,3.7,53.8z"/>
		<path d="M53.8,4.3c0-0.2,0-0.4,0-0.6c1.1,0,2,0.5,2.8,1.2c0-0.7,0-1.3,0-2c0.2,0,0.5,0,0.7,0c0,0.6,0,1.2,0,2
			c0.7-0.9,1.7-1.3,2.8-1.2c0,0.2,0,0.5,0,0.6c-0.2,0-0.5,0.1-0.7,0.1c-1.3,0.4-2.2,1.5-2.2,2.7c0,0.6,0,1.2,0,2c-0.2,0-0.5,0-0.7,0
			c0-0.5,0-1,0-1.6c0-1.8-0.7-2.8-2.6-3.2C53.9,4.5,53.8,4.3,53.8,4.3z"/>
		<path d="M11.5,3c0,0.6,0,1.2,0,2c0.7-0.9,1.7-1.3,2.8-1.3c0,0.2,0,0.5,0,0.6c-0.2,0-0.5,0.1-0.9,0.1c-1.2,0.4-2,1.3-2,2.8
			c0,0.6,0,1.2,0,1.8c-0.2,0-0.5,0-0.7,0c0-0.5,0-0.9,0-1.3c0.1-1.6-0.7-2.9-2.7-3.3c0-0.2,0-0.4,0-0.6c1,0,1.5,0.1,2.7,1.2
			c0-0.6,0-1.2,0-1.8C11,3,11.3,3,11.5,3z"/>
		<path d="M3.7,8.1c0.2,0,0.5,0,0.6,0c0,0.2,0.1,0.5,0.1,0.7c0.5,1.2,1.5,2,2.8,2c0.6,0,1.2,0,1.8,0c0,0.2,0,0.5,0,0.7
			c-0.6,0-1.2,0-1.8,0c-1.3,0-2.4,0.7-2.8,2c-0.1,0.2-0.1,0.5-0.1,0.9c-0.2,0-0.4,0-0.6,0c0-1.1,0.4-2,1.2-2.8c-0.7,0-1.3,0-2,0
			c0-0.2,0-0.5,0-0.7c0.6,0,1.2,0,2,0C4.2,9.9,3.7,9.2,3.7,8.1z"/>
		<path d="M48.8,10.8c0.6,0,1.2,0,2,0c-0.7-0.9-1.2-1.6-1.2-2.7c0.2,0,0.5,0,0.6,0c0,0.2,0.1,0.5,0.2,0.7c0.4,1.2,1.5,2,2.7,2
			c0.6,0,1.2,0,1.8,0c0,0.2,0,0.4,0,0.7c-0.6,0-1.2,0-1.8,0c-1,0-1.7,0.2-2.3,1.1c-0.4,0.5-0.5,1.1-0.7,1.7c-0.1,0-0.2,0-0.5,0
			c-0.1-0.9,0.1-1.6,1.1-2.8c-0.6,0-1.2,0-1.8,0C48.8,11.3,48.8,11,48.8,10.8z"/>
		<path d="M54.8,56.5c0,0.2,0,0.5,0,0.7c-0.5,0-1,0-1.5,0c-1.7-0.1-3.1,0.7-3.3,2.8c-0.2,0-0.4,0-0.6,0c0-1.1,0.4-2,1.2-2.8
			c-0.7,0-1.2,0-2,0c0-0.2,0-0.5,0-0.7c0.6,0,1.2,0,2,0c-0.7-0.9-1.3-1.7-1.2-2.8c0.2,0,0.4,0,0.6,0c0,0.1,0.1,0.2,0.1,0.4
			c0.2,1.5,1.3,2.3,2.8,2.3C53.5,56.5,54.2,56.5,54.8,56.5z"/>
		<path d="M11.5,54.9c-0.2,0-0.5,0-0.7,0c0-0.5,0-1,0-1.6c0-1.8-0.7-2.8-2.6-3.2H8.1c0-0.2,0-0.4,0-0.6c1.1,0,2,0.5,2.7,1.2
			c0-0.6,0-1.2,0-1.8c0.2,0,0.5,0,0.7,0c0,0.6,0,1.2,0,2c0.9-0.9,1.7-1.3,2.8-1.2c0,0.2,0,0.4,0,0.6c-0.2,0-0.5,0.1-0.9,0.1
			c-1.2,0.4-2,1.5-2,2.8C11.5,53.7,11.5,54.2,11.5,54.9z"/>
		<path d="M57.2,54.9c-0.2,0-0.5,0-0.7,0c0-0.6,0-1.2,0-1.8c0-1.2-0.6-2.2-1.7-2.7c-0.4-0.1-0.6-0.2-1-0.2c0-0.2,0-0.4,0-0.6
			c0.9-0.1,1.6,0.2,2.7,1.2c0-0.6,0-1.2,0-1.8c0.2,0,0.5,0,0.7,0c0,0.6,0,1.2,0,2c0.9-0.9,1.7-1.3,2.8-1.2c0,0.2,0,0.4,0,0.6
			c-0.5,0.1-1,0.2-1.5,0.5c-0.9,0.5-1.3,1.3-1.3,2.4C57.2,53.5,57.2,54.2,57.2,54.9z"/>
	</g>
	<polygon points="85.3,41.5 94.3,32.9 94.3,51.1 92.4,51.1 92.4,36.9 85.3,43.8 78.1,36.9 78.1,51.1 76.3,51.1 76.3,32.9 	"/>
	<path d="M125.7,46.1c-1.2,1.3-2.8,1.7-4,1.7c-3.1,0-5.5-2.4-5.5-5.5c0-3.1,2.4-5.5,5.5-5.5c1.2,0,2.8,0.4,4,1.7l-1.2,1.1
		c-0.7-0.7-1.7-1.2-2.8-1.2c-2.2,0-3.9,1.8-3.9,4c0,2.2,1.7,4,3.9,4c0.9,0,1.7-0.2,2.4-0.9v-3.2h1.6V46.1L125.7,46.1z"/>
	<polygon points="133.3,47.7 131.7,47.7 131.7,36.7 141.5,44.7 141.5,36.9 143,36.9 143,47.9 133.3,39.9 	"/>
	<path d="M154.4,36.7c3.1,0,5.5,2.4,5.5,5.5c0,3.1-2.4,5.5-5.5,5.5s-5.5-2.4-5.5-5.5C148.9,39.3,151.4,36.7,154.4,36.7 M154.4,46.2
		c2.2,0,3.9-1.8,3.9-4c0-2.2-1.7-3.9-3.9-3.9s-3.9,1.7-3.9,3.9C150.5,44.5,152.2,46.2,154.4,46.2"/>
	<polygon points="175.3,46.2 175.3,47.7 165.4,47.7 165.4,36.8 167,36.8 167,46.2 	"/>
	<rect x="180.4" y="36.8" width="1.6" height="10.7"/>
	<path d="M111.5,47.7H110V45H102v2.7h-1.6v-5.4c0-3.1,2.4-5.5,5.5-5.5c3.1,0,5.5,2.4,5.5,5.5v5.4H111.5z M102,43.5h7.9v-1.2
		c0-2.2-1.8-4-4-4c-2.2,0-4,1.8-4,4v1.2H102z"/>
	<path d="M199.1,47.7h-1.6V45h-7.9v2.7H188v-5.4c0-3.1,2.4-5.5,5.5-5.5s5.5,2.4,5.5,5.5v5.4H199.1z M189.6,43.5h7.9v-1.2
		c0-2.2-1.8-4-4-4s-4,1.8-4,4v1.2H189.6z"/>
	<polygon points="120,21.7 115.5,21.7 115.5,24.5 114.6,24.5 114.6,18.2 115.5,18.2 115.5,20.8 120,20.8 120,18.2 120.8,18.2 
		120.8,24.5 120,24.5 	"/>
	<path d="M128.5,18.1c1.7,0,3.2,1.5,3.2,3.2s-1.5,3.2-3.2,3.2s-3.2-1.5-3.2-3.2S126.8,18.1,128.5,18.1 M128.5,23.6
		c1.2,0,2.2-1,2.2-2.3c0-1.2-1-2.3-2.2-2.3c-1.2,0-2.2,1-2.2,2.3C126.3,22.6,127.3,23.6,128.5,23.6"/>
	<polygon points="137.6,24.5 137.6,19.1 135.2,19.1 135.2,18.2 140.9,18.2 140.9,19.1 138.5,19.1 138.5,24.5 	"/>
	<polygon points="150.5,23.6 150.5,24.5 144.9,24.5 144.9,18.2 150.5,18.2 150.5,19.1 145.7,19.1 145.7,20.8 149.2,20.8 149.2,21.7 
		145.7,21.7 145.7,23.6 	"/>
	<polygon points="160.8,23.6 160.8,24.5 155,24.5 155,18.2 156,18.2 156,23.6 	"/>
</g>
</svg>
