<?xml version="1.0" encoding="utf-8"?>
<!-- Generator: Adobe Illustrator 21.0.0, SVG Export Plug-In . SVG Version: 6.00 Build 0)  -->
<svg version="1.1" id="Capa_1" xmlns="http://www.w3.org/2000/svg" xmlns:xlink="http://www.w3.org/1999/xlink" x="0px" y="0px"
	 viewBox="0 0 140 38" style="enable-background:new 0 0 140 38;" xml:space="preserve">
<g>
	<g>
		<g>
			<g>
				<path d="M50,19.6h-1.2v-3.2h-3.3v3.2h-1.2v-7.1h1.2v2.9h3.3v-2.9H50V19.6z"/>
			</g>
			<g>
				<path d="M54.1,19.7c-0.8,0-1.5-0.2-2-0.7c-0.5-0.5-0.7-1.2-0.7-2c0-0.9,0.2-1.6,0.6-2.1c0.4-0.5,1-0.8,1.8-0.8
					c0.7,0,1.3,0.2,1.7,0.6c0.4,0.4,0.6,1,0.6,1.8v0.6h-3.6c0,0.5,0.2,0.9,0.4,1.2c0.3,0.3,0.6,0.4,1.1,0.4c0.3,0,0.6,0,0.9-0.1
					s0.6-0.2,0.9-0.3v0.9c-0.3,0.1-0.5,0.2-0.9,0.3C54.8,19.7,54.5,19.7,54.1,19.7z M53.9,15.1c-0.4,0-0.6,0.1-0.9,0.3
					c-0.2,0.2-0.3,0.5-0.4,1h2.4c0-0.4-0.1-0.8-0.3-1C54.6,15.2,54.3,15.1,53.9,15.1z"/>
			</g>
			<g>
				<path d="M60.2,14.2c0.2,0,0.4,0,0.6,0.1l-0.1,1.1c-0.2,0-0.3-0.1-0.5-0.1c-0.5,0-0.8,0.2-1.1,0.5c-0.3,0.3-0.4,0.7-0.4,1.2v2.8
					h-1.1v-5.4h0.9l0.2,0.9h0.1c0.2-0.3,0.4-0.6,0.7-0.8C59.6,14.3,59.9,14.2,60.2,14.2z"/>
			</g>
			<g>
				<path d="M66.5,19.6h-1.1v-3.3c0-0.4-0.1-0.7-0.2-0.9c-0.2-0.2-0.4-0.3-0.8-0.3c-0.5,0-0.8,0.2-1.1,0.4c-0.2,0.3-0.3,0.8-0.3,1.4
					v2.7h-1.1v-5.3h0.9l0.2,0.7h0.1c0.2-0.2,0.4-0.5,0.7-0.6c0.3-0.2,0.6-0.2,1-0.2c1.3,0,1.9,0.6,1.9,2L66.5,19.6L66.5,19.6z"/>
			</g>
			<g>
				<path d="M71.4,19.6l-0.2-0.7h0c-0.2,0.3-0.5,0.5-0.8,0.7c-0.3,0.1-0.6,0.2-1,0.2c-0.5,0-0.9-0.2-1.2-0.4
					c-0.3-0.3-0.5-0.7-0.5-1.2c0-0.5,0.2-1,0.6-1.3c0.4-0.3,1-0.4,1.9-0.5l0.9,0v-0.3c0-0.3-0.1-0.6-0.2-0.8
					c-0.2-0.2-0.4-0.2-0.7-0.2c-0.3,0-0.5,0-0.8,0.1c-0.2,0.1-0.5,0.2-0.7,0.3l-0.4-0.8c0.3-0.2,0.6-0.3,0.9-0.3
					c0.3-0.1,0.7-0.1,1-0.1c0.7,0,1.2,0.2,1.5,0.5s0.5,0.8,0.5,1.4v3.6L71.4,19.6L71.4,19.6z M69.7,18.9c0.4,0,0.7-0.1,1-0.3
					c0.2-0.2,0.4-0.5,0.4-1v-0.5l-0.7,0c-0.5,0-0.9,0.1-1.2,0.3c-0.2,0.2-0.4,0.4-0.4,0.7c0,0.2,0.1,0.4,0.2,0.5
					C69.2,18.8,69.4,18.9,69.7,18.9z M69.4,13.6v-0.1c0.2-0.2,0.4-0.5,0.6-0.8c0.2-0.3,0.3-0.5,0.5-0.7h1.3v0.1
					c-0.2,0.2-0.4,0.5-0.8,0.8s-0.6,0.5-0.9,0.7H69.4z"/>
			</g>
			<g>
				<path d="M78.5,19.6h-1.1v-3.3c0-0.4-0.1-0.7-0.2-0.9c-0.2-0.2-0.4-0.3-0.8-0.3c-0.5,0-0.8,0.2-1.1,0.4c-0.2,0.3-0.3,0.8-0.3,1.4
					v2.7h-1.1v-5.3h0.9l0.2,0.7h0.1c0.2-0.2,0.4-0.5,0.7-0.6c0.3-0.2,0.6-0.2,1-0.2c1.3,0,1.9,0.6,1.9,2L78.5,19.6L78.5,19.6z"/>
			</g>
			<g>
				<path d="M81.9,19.7c-0.7,0-1.2-0.2-1.6-0.7s-0.5-1.2-0.5-2c0-0.9,0.2-1.6,0.6-2c0.4-0.5,0.9-0.7,1.6-0.7c0.7,0,1.3,0.3,1.6,0.8
					h0.1c-0.1-0.4-0.1-0.7-0.1-0.9v-2h1.1v7.5h-0.9l-0.2-0.7h-0.1C83.1,19.5,82.6,19.7,81.9,19.7z M82.2,18.8c0.5,0,0.8-0.1,1-0.4
					c0.2-0.3,0.3-0.7,0.3-1.3V17c0-0.7-0.1-1.2-0.3-1.4c-0.2-0.3-0.5-0.4-1-0.4c-0.4,0-0.7,0.2-0.9,0.5s-0.3,0.8-0.3,1.4
					s0.1,1,0.3,1.3C81.4,18.7,81.8,18.8,82.2,18.8z"/>
			</g>
			<g>
				<path d="M88.6,19.7c-0.8,0-1.5-0.2-2-0.7s-0.7-1.2-0.7-2c0-0.9,0.2-1.6,0.6-2.1c0.4-0.5,1-0.8,1.8-0.8c0.7,0,1.3,0.2,1.7,0.6
					c0.4,0.4,0.6,1,0.6,1.8v0.6h-3.6c0,0.5,0.2,0.9,0.4,1.2c0.3,0.3,0.6,0.4,1.1,0.4c0.3,0,0.6,0,0.9-0.1s0.6-0.2,0.9-0.3v0.9
					c-0.3,0.1-0.5,0.2-0.9,0.3C89.3,19.7,89,19.7,88.6,19.7z M88.4,15.1c-0.4,0-0.6,0.1-0.9,0.3c-0.2,0.2-0.3,0.5-0.4,1h2.4
					c0-0.4-0.1-0.8-0.3-1C89,15.2,88.7,15.1,88.4,15.1z"/>
			</g>
			<g>
				<path d="M95.5,19.6h-4.1v-0.7l2.7-3.8h-2.5v-0.9h3.8v0.8l-2.7,3.7h2.7L95.5,19.6L95.5,19.6z"/>
			</g>
			<g>
				<path d="M108.6,19.6h-5.1v-0.8l3.6-5.3h-3.5v-1h4.9v0.8l-3.6,5.3h3.7L108.6,19.6L108.6,19.6z"/>
			</g>
			<g>
				<path d="M113.1,19.6l-0.2-0.7h0c-0.2,0.3-0.5,0.5-0.8,0.7c-0.3,0.1-0.6,0.2-1,0.2c-0.5,0-0.9-0.2-1.2-0.4
					c-0.3-0.3-0.5-0.7-0.5-1.2c0-0.5,0.2-1,0.6-1.3c0.4-0.3,1-0.4,1.9-0.5l0.9,0v-0.3c0-0.3-0.1-0.6-0.2-0.8
					c-0.2-0.2-0.4-0.2-0.7-0.2c-0.3,0-0.5,0-0.8,0.1c-0.2,0.1-0.5,0.2-0.7,0.3l-0.4-0.8c0.3-0.2,0.6-0.3,0.9-0.3
					c0.3-0.1,0.7-0.1,1-0.1c0.7,0,1.2,0.2,1.5,0.5s0.5,0.8,0.5,1.4v3.6L113.1,19.6L113.1,19.6z M111.4,18.9c0.4,0,0.7-0.1,1-0.3
					c0.2-0.2,0.4-0.5,0.4-1v-0.5l-0.7,0c-0.5,0-0.9,0.1-1.2,0.3c-0.2,0.2-0.4,0.4-0.4,0.7c0,0.2,0.1,0.4,0.2,0.5
					C110.9,18.8,111.1,18.9,111.4,18.9z"/>
			</g>
			<g>
				<path d="M120,19.6h-1.1v-3.3c0-0.4-0.1-0.7-0.2-0.9c-0.2-0.2-0.4-0.3-0.7-0.3c-0.4,0-0.8,0.2-1,0.4s-0.3,0.8-0.3,1.4v2.7h-1.1
					v-5.3h0.9l0.2,0.7h0.1c0.2-0.2,0.4-0.5,0.6-0.6c0.3-0.2,0.6-0.2,0.9-0.2c0.8,0,1.4,0.3,1.6,0.9h0.1c0.2-0.3,0.4-0.5,0.7-0.6
					c0.3-0.2,0.6-0.2,1-0.2c0.6,0,1.1,0.2,1.4,0.5c0.3,0.3,0.4,0.8,0.4,1.5v3.5h-1.1v-3.3c0-0.4-0.1-0.7-0.2-0.9
					c-0.2-0.2-0.4-0.3-0.7-0.3c-0.4,0-0.8,0.2-1,0.4s-0.3,0.7-0.3,1.3V19.6z"/>
			</g>
			<g>
				<path d="M129.7,16.9c0,0.9-0.2,1.6-0.7,2c-0.5,0.5-1.1,0.7-1.9,0.7c-0.5,0-0.9-0.1-1.3-0.3c-0.4-0.2-0.7-0.5-0.9-1
					c-0.2-0.4-0.3-0.9-0.3-1.5c0-0.9,0.2-1.6,0.7-2c0.5-0.5,1.1-0.7,1.9-0.7c0.8,0,1.4,0.2,1.8,0.7
					C129.5,15.4,129.7,16.1,129.7,16.9z M125.8,16.9c0,1.2,0.5,1.9,1.4,1.9s1.3-0.6,1.3-1.9c0-1.2-0.5-1.8-1.4-1.8
					c-0.5,0-0.8,0.2-1,0.5C125.9,15.9,125.8,16.4,125.8,16.9z"/>
			</g>
			<g>
				<path d="M133.7,14.2c0.2,0,0.4,0,0.6,0.1l-0.1,1.1c-0.2,0-0.3-0.1-0.5-0.1c-0.5,0-0.8,0.2-1.1,0.5c-0.3,0.3-0.4,0.7-0.4,1.2v2.8
					H131v-5.4h0.9l0.2,0.9h0.1c0.2-0.3,0.4-0.6,0.7-0.8C133.1,14.3,133.4,14.2,133.7,14.2z"/>
			</g>
			<g>
				<path d="M138.6,19.6l-0.2-0.7h0c-0.2,0.3-0.5,0.5-0.8,0.7c-0.3,0.1-0.6,0.2-1,0.2c-0.5,0-0.9-0.2-1.2-0.4
					c-0.3-0.3-0.5-0.7-0.5-1.2c0-0.5,0.2-1,0.6-1.3c0.4-0.3,1-0.4,1.9-0.5l0.9,0v-0.3c0-0.3-0.1-0.6-0.2-0.8
					c-0.2-0.2-0.4-0.2-0.7-0.2c-0.3,0-0.5,0-0.8,0.1c-0.2,0.1-0.5,0.2-0.7,0.3l-0.4-0.8c0.3-0.2,0.6-0.3,0.9-0.3
					c0.3-0.1,0.7-0.1,1-0.1c0.7,0,1.2,0.2,1.5,0.5c0.3,0.3,0.5,0.8,0.5,1.4v3.6L138.6,19.6L138.6,19.6z M136.9,18.9
					c0.4,0,0.7-0.1,1-0.3c0.2-0.2,0.4-0.5,0.4-1v-0.5l-0.7,0c-0.5,0-0.9,0.1-1.2,0.3c-0.2,0.2-0.4,0.4-0.4,0.7
					c0,0.2,0.1,0.4,0.2,0.5S136.7,18.9,136.9,18.9z"/>
			</g>
		</g>
		<g>
			<g>
				<path d="M46.4,26.7c0,0.3-0.1,0.5-0.3,0.6c-0.2,0.2-0.5,0.2-0.8,0.2c-0.3,0-0.6-0.1-0.9-0.2v-0.6c0.2,0.1,0.4,0.2,0.5,0.2
					c0.2,0,0.3,0.1,0.4,0.1c0.2,0,0.2,0,0.3-0.1c0.1-0.1,0.1-0.1,0.1-0.2c0-0.1,0-0.1-0.1-0.2c0-0.1-0.1-0.1-0.2-0.1
					s-0.2-0.1-0.4-0.2c-0.2-0.1-0.3-0.2-0.4-0.2c-0.1-0.1-0.2-0.2-0.2-0.3c-0.1-0.1-0.1-0.2-0.1-0.4c0-0.3,0.1-0.5,0.3-0.6
					c0.2-0.2,0.4-0.2,0.8-0.2c0.2,0,0.3,0,0.5,0.1c0.2,0,0.3,0.1,0.5,0.2l-0.2,0.5C46,25.1,45.9,25,45.8,25c-0.1,0-0.2,0-0.3,0
					c-0.1,0-0.2,0-0.3,0.1c-0.1,0.1-0.1,0.1-0.1,0.2c0,0.1,0,0.1,0,0.2c0,0,0.1,0.1,0.1,0.1s0.2,0.1,0.4,0.2
					c0.3,0.2,0.5,0.3,0.6,0.4C46.4,26.3,46.4,26.4,46.4,26.7z"/>
			</g>
			<g>
				<path d="M51.6,27.5h-1.8v-3.1h1.8v0.5h-1.1v0.7h1v0.5h-1v0.8h1.1V27.5z"/>
			</g>
			<g>
				<path d="M55.7,26.3v1.2H55v-3.1h0.9c0.4,0,0.7,0.1,0.9,0.2c0.2,0.2,0.3,0.4,0.3,0.7c0,0.2-0.1,0.3-0.2,0.5
					c-0.1,0.2-0.2,0.2-0.4,0.3c0.5,0.7,0.8,1.1,0.9,1.3h-0.7L56,26.3H55.7z M55.7,25.8h0.2c0.2,0,0.4,0,0.5-0.1
					c0.1-0.1,0.2-0.2,0.2-0.3c0-0.2-0.1-0.2-0.2-0.3C56.2,25,56.1,25,55.9,25h-0.2L55.7,25.8L55.7,25.8z"/>
			</g>
			<g>
				<path d="M62.4,24.4h0.7l-1,3.1h-0.7l-1-3.1H61l0.6,1.8c0,0.1,0.1,0.2,0.1,0.4c0,0.2,0.1,0.2,0.1,0.3c0-0.1,0.1-0.4,0.2-0.7
					L62.4,24.4z"/>
			</g>
			<g>
				<path d="M66.2,27.5v-3.1h0.6v3.1H66.2z"/>
			</g>
			<g>
				<path d="M71.8,24.9c-0.2,0-0.4,0.1-0.6,0.3c-0.1,0.2-0.2,0.4-0.2,0.8c0,0.7,0.2,1,0.8,1c0.2,0,0.5-0.1,0.8-0.2v0.5
					c-0.2,0.1-0.5,0.2-0.9,0.2c-0.5,0-0.8-0.1-1-0.4c-0.2-0.3-0.4-0.7-0.4-1.2c0-0.3,0.1-0.6,0.2-0.9c0.1-0.2,0.3-0.4,0.5-0.5
					c0.2-0.1,0.5-0.2,0.8-0.2c0.3,0,0.6,0.1,0.9,0.2l-0.2,0.5C72.3,25.1,72.1,25,72,25C72,24.9,71.9,24.9,71.8,24.9z"/>
			</g>
			<g>
				<path d="M76,27.5v-3.1h0.6v3.1H76z"/>
			</g>
			<g>
				<path d="M83,25.9c0,0.5-0.1,0.9-0.4,1.2c-0.2,0.3-0.6,0.4-1.1,0.4c-0.5,0-0.8-0.1-1.1-0.4c-0.2-0.3-0.4-0.7-0.4-1.2
					c0-0.5,0.1-0.9,0.4-1.2c0.2-0.3,0.6-0.4,1.1-0.4c0.5,0,0.8,0.1,1.1,0.4C82.9,25.1,83,25.5,83,25.9z M80.8,25.9
					c0,0.3,0.1,0.6,0.2,0.8c0.1,0.2,0.3,0.3,0.6,0.3c0.5,0,0.8-0.3,0.8-1c0-0.7-0.2-1-0.8-1c-0.3,0-0.5,0.1-0.6,0.3
					C80.8,25.4,80.8,25.6,80.8,25.9z"/>
			</g>
			<g>
				<path d="M88.3,26.7c0,0.3-0.1,0.5-0.3,0.6c-0.2,0.2-0.5,0.2-0.8,0.2c-0.3,0-0.6-0.1-0.9-0.2v-0.6c0.2,0.1,0.4,0.2,0.5,0.2
					c0.2,0,0.3,0.1,0.4,0.1c0.2,0,0.2,0,0.3-0.1c0.1-0.1,0.1-0.1,0.1-0.2c0-0.1,0-0.1-0.1-0.2c0-0.1-0.1-0.1-0.2-0.1
					c-0.1,0-0.2-0.1-0.4-0.2c-0.2-0.1-0.3-0.2-0.4-0.2c-0.1-0.1-0.2-0.2-0.2-0.3c-0.1-0.1-0.1-0.2-0.1-0.4c0-0.3,0.1-0.5,0.3-0.6
					c0.2-0.2,0.4-0.2,0.8-0.2c0.2,0,0.3,0,0.5,0.1s0.3,0.1,0.5,0.2L88,25.1c-0.2-0.1-0.3-0.1-0.4-0.2c-0.1,0-0.2,0-0.3,0
					c-0.1,0-0.2,0-0.3,0.1C87,25.1,87,25.2,87,25.2c0,0.1,0,0.1,0,0.2c0,0,0.1,0.1,0.1,0.1c0.1,0,0.2,0.1,0.4,0.2
					c0.3,0.2,0.5,0.3,0.6,0.4C88.2,26.3,88.3,26.4,88.3,26.7z"/>
			</g>
			<g>
				<path d="M95.2,28.4c-0.2,0-0.3,0-0.4-0.1v-0.5c0.1,0,0.2,0,0.3,0c0.2,0,0.2,0,0.3-0.1c0.1-0.1,0.1-0.2,0.1-0.4v-2.9h0.6v2.9
					c0,0.4-0.1,0.6-0.2,0.8C95.8,28.3,95.5,28.4,95.2,28.4z"/>
			</g>
			<g>
				<path d="M102.3,24.4v2c0,0.2-0.1,0.4-0.2,0.6s-0.2,0.3-0.4,0.4c-0.2,0.1-0.4,0.1-0.7,0.1c-0.4,0-0.7-0.1-0.9-0.3
					c-0.2-0.2-0.3-0.5-0.3-0.8v-2h0.6v1.9c0,0.2,0.1,0.4,0.2,0.5c0.1,0.1,0.2,0.2,0.5,0.2s0.4-0.1,0.5-0.2c0.1-0.1,0.2-0.3,0.2-0.5
					v-1.9C101.6,24.4,102.3,24.4,102.3,24.4z"/>
			</g>
			<g>
				<path d="M106.5,26.3v1.2h-0.6v-3.1h0.9c0.4,0,0.7,0.1,0.9,0.2c0.2,0.2,0.3,0.4,0.3,0.7c0,0.2-0.1,0.3-0.2,0.5
					c-0.1,0.2-0.2,0.2-0.4,0.3c0.5,0.7,0.8,1.1,0.9,1.3h-0.7l-0.7-1.2H106.5z M106.5,25.8h0.2c0.2,0,0.4,0,0.5-0.1
					c0.1-0.1,0.2-0.2,0.2-0.3c0-0.2-0.1-0.2-0.2-0.3s-0.2-0.1-0.5-0.1h-0.2L106.5,25.8L106.5,25.8z"/>
			</g>
			<g>
				<path d="M111.4,24.2L111.4,24.2c0.2-0.3,0.4-0.5,0.5-0.7h0.7v0c-0.1,0.1-0.2,0.2-0.4,0.3c-0.2,0.2-0.3,0.2-0.4,0.3H111.4z
					 M111.5,27.5v-3.1h0.6v3.1H111.5z"/>
			</g>
			<g>
				<path d="M118.3,25.9c0,0.5-0.2,0.9-0.4,1.2c-0.3,0.3-0.7,0.4-1.3,0.4h-0.9v-3.1h1c0.5,0,0.9,0.1,1.2,0.4
					C118.1,25.1,118.3,25.5,118.3,25.9z M117.5,25.9c0-0.7-0.3-1-0.9-1h-0.3v2h0.3C117.2,27,117.5,26.6,117.5,25.9z"/>
			</g>
			<g>
				<path d="M121.7,27.5v-3.1h0.6v3.1H121.7z"/>
			</g>
			<g>
				<path d="M127.2,24.9c-0.2,0-0.4,0.1-0.6,0.3c-0.1,0.2-0.2,0.4-0.2,0.8c0,0.7,0.2,1,0.8,1c0.2,0,0.5-0.1,0.8-0.2v0.5
					c-0.2,0.1-0.5,0.2-0.9,0.2c-0.5,0-0.8-0.1-1-0.4c-0.2-0.3-0.4-0.7-0.4-1.2c0-0.3,0.1-0.6,0.2-0.9s0.3-0.4,0.5-0.5
					s0.5-0.2,0.8-0.2c0.3,0,0.6,0.1,0.9,0.2l-0.2,0.5c-0.1-0.1-0.2-0.1-0.3-0.2C127.4,24.9,127.3,24.9,127.2,24.9z"/>
			</g>
			<g>
				<path d="M134.2,25.9c0,0.5-0.1,0.9-0.4,1.2c-0.2,0.3-0.6,0.4-1.1,0.4c-0.5,0-0.8-0.1-1.1-0.4c-0.3-0.3-0.4-0.7-0.4-1.2
					c0-0.5,0.1-0.9,0.4-1.2c0.2-0.3,0.6-0.4,1.1-0.4c0.5,0,0.8,0.1,1.1,0.4C134.1,25.1,134.2,25.5,134.2,25.9z M132,25.9
					c0,0.3,0.1,0.6,0.2,0.8c0.1,0.2,0.3,0.3,0.6,0.3c0.5,0,0.8-0.3,0.8-1c0-0.7-0.2-1-0.8-1c-0.3,0-0.5,0.1-0.6,0.3
					C132,25.4,132,25.6,132,25.9z"/>
			</g>
			<g>
				<path d="M139.5,26.7c0,0.3-0.1,0.5-0.3,0.6c-0.2,0.2-0.5,0.2-0.8,0.2c-0.3,0-0.6-0.1-0.9-0.2v-0.6c0.2,0.1,0.4,0.2,0.5,0.2
					c0.2,0,0.3,0.1,0.4,0.1c0.2,0,0.2,0,0.3-0.1c0.1-0.1,0.1-0.1,0.1-0.2c0-0.1,0-0.1-0.1-0.2c0-0.1-0.1-0.1-0.2-0.1
					s-0.2-0.1-0.4-0.2c-0.2-0.1-0.3-0.2-0.4-0.2c-0.1-0.1-0.2-0.2-0.2-0.3c-0.1-0.1-0.1-0.2-0.1-0.4c0-0.3,0.1-0.5,0.3-0.6
					c0.2-0.2,0.4-0.2,0.8-0.2c0.2,0,0.3,0,0.5,0.1c0.2,0,0.3,0.1,0.5,0.2l-0.2,0.5c-0.2-0.1-0.3-0.1-0.4-0.2c-0.1,0-0.2,0-0.3,0
					c-0.1,0-0.2,0-0.3,0.1c-0.1,0.1-0.1,0.1-0.1,0.2c0,0.1,0,0.1,0,0.2s0.1,0.1,0.1,0.1s0.2,0.1,0.4,0.2c0.3,0.2,0.5,0.3,0.6,0.4
					C139.4,26.3,139.5,26.4,139.5,26.7z"/>
			</g>
		</g>
		<g>
			<path d="M16.6,20c0-0.5-0.1-1-0.2-1.5c-0.2-1-0.9-1.6-1.8-1.8c-1.2-0.3-2.4-0.1-3.3,0.8c-0.7,0.7-1,1.6-1.2,2.6
				c-0.1,0.7-0.1,1.3-0.1,2c0,1.4,0,2.9,0,4.3c0,0.6-0.4,1.2-1,1.3c-0.6,0.2-1.3,0-1.6-0.5C7.1,26.9,7,26.5,7,26.2
				c0-4.2,0-13.9,0-20.9c-3.7,3.4-6,8.3-6,13.8c0,9.3,6.8,17,15.7,18.5C16.6,31,16.6,21.4,16.6,20z"/>
		</g>
		<g>
			<path d="M19.6,0.3c-3.6,0-6.9,1-9.7,2.7c0,4.5,0,11,0,12.5c0,0.1,0,0.2,0,0.3c0.4-0.4,0.9-0.8,1.4-1.2c1.3-0.8,2.8-0.9,4.3-0.6
				c1.2,0.2,2.2,0.8,3,1.8c0.5,0.8,0.8,1.7,0.9,2.6c0.1,0.9,0.1,1.9,0.1,2.8c0,1.1,0,10.2,0,16.4h0c10.3,0,18.7-8.4,18.7-18.7
				S30,0.3,19.6,0.3z M31,27.5c-2.9,0-5.8,0-8.7,0c-0.2,0-0.3,0-0.4,0c-0.7-0.2-1.1-0.8-0.9-1.5c0.1-0.3,0.2-0.5,0.4-0.8
				c2.1-2.7,4.2-5.3,6.3-8c0.1-0.1,0.2-0.3,0.3-0.3c-0.2,0-0.2,0-0.4,0c-1.8,0-3.7,0-5.5,0c-0.8,0-1.3-0.5-1.3-1.2
				c-0.1-0.7,0.5-1.3,1.1-1.4c0.1,0,0.3,0,0.4,0c2.8,0,5.6,0,8.4,0c0.2,0,0.4,0,0.6,0.1c0.8,0.2,1.1,1.1,0.6,1.9
				c-0.3,0.6-0.8,1.1-1.2,1.6c-1.8,2.3-3.6,4.6-5.4,6.9c-0.1,0.1-0.1,0.1-0.2,0.2c2,0,4,0,5.9,0c0.6,0,1.1,0.3,1.3,0.9
				C32.6,26.6,32,27.5,31,27.5z"/>
		</g>
		<g>
			<path d="M96.3,17.8c0-0.4,0.1-0.8,0.3-1.1c0.2-0.3,0.6-0.6,1.1-0.9c-0.3-0.4-0.5-0.7-0.6-0.9C97,14.6,97,14.3,97,14
				c0-0.5,0.2-0.9,0.5-1.2c0.3-0.3,0.8-0.4,1.4-0.4s1,0.2,1.3,0.4c0.3,0.3,0.5,0.6,0.5,1.1c0,0.4-0.1,0.7-0.3,1s-0.6,0.6-1.1,0.9
				l1.7,1.6c0.3-0.3,0.5-0.9,0.6-1.5h1.2c-0.2,0.9-0.6,1.6-1.1,2.2l1.5,1.4h-1.5l-0.7-0.7c-0.3,0.3-0.7,0.5-1,0.6
				c-0.4,0.1-0.8,0.2-1.3,0.2c-0.7,0-1.3-0.2-1.7-0.5C96.6,18.8,96.3,18.4,96.3,17.8z M98.8,18.7c0.6,0,1.1-0.2,1.5-0.5l-1.9-1.8
				c-0.3,0.2-0.6,0.4-0.7,0.6c-0.1,0.2-0.2,0.4-0.2,0.6c0,0.3,0.1,0.6,0.3,0.8C98.1,18.7,98.4,18.7,98.8,18.7z M98.1,14.1
				c0,0.2,0.1,0.4,0.2,0.6c0.1,0.2,0.2,0.4,0.5,0.6c0.4-0.2,0.6-0.4,0.8-0.6s0.2-0.4,0.2-0.6c0-0.2-0.1-0.4-0.2-0.5
				s-0.3-0.2-0.5-0.2c-0.2,0-0.5,0.1-0.6,0.2C98.1,13.7,98.1,13.9,98.1,14.1z"/>
		</g>
		<rect x="44" y="21.7" width="96" height="0.7"/>
	</g>
</g>
</svg>
