<?xml version="1.0" encoding="utf-8"?>
<!-- Generator: Adobe Illustrator 21.0.0, SVG Export Plug-In . SVG Version: 6.00 Build 0)  -->
<svg version="1.1" id="Capa_1" xmlns="http://www.w3.org/2000/svg" xmlns:xlink="http://www.w3.org/1999/xlink" x="0px" y="0px"
	 viewBox="0 0 172 38" style="enable-background:new 0 0 172 38;" xml:space="preserve">
<g>
	<g>
		<g>
			<g>
				<path d="M30.6,19.7c0-4.7-3.8-8.6-8.5-8.6c-4.7-0.1-8.6,3.7-8.8,8.3c0,0.5,0,1.1,0.1,1.6c0,0.1,0,0.2,0.1,0.4
					c0,0.2,0.1,0.4,0.2,0.7l3,12.3c0.5,2.2,2.5,3.7,4.7,3.7c0.4,0,0.7,0,1.1-0.1c2.6-0.6,4.2-3.3,3.6-5.9l-0.5-2.2
					c-0.3-1.1,0.2-2.2,1.2-2.8C29,25.5,30.6,22.8,30.6,19.7z"/>
				<path d="M7.2,31.3c-2.2,0-4.1-1.5-4.7-3.7l-1.6-7.2c-1-4.4-0.3-8.9,2.1-12.7C5.4,4,9.2,1.3,13.5,0.3c2.6-0.6,5.1,1,5.7,3.6
					c0.6,2.6-1,5.1-3.6,5.7c-1.9,0.4-3.5,1.6-4.5,3.2s-1.3,3.6-0.9,5.4l1.6,7.1c0.6,2.6-1,5.2-3.6,5.8C7.9,31.3,7.6,31.3,7.2,31.3z"
					/>
			</g>
		</g>
	</g>
	<g>
		<path d="M40.2,14.9h2.9v1.5h0c0.3-0.6,0.7-1,1.1-1.3s1-0.4,1.6-0.4c0.2,0,0.3,0,0.5,0c0.2,0,0.3,0,0.5,0.1v2.6
			c-0.2-0.1-0.4-0.1-0.6-0.2c-0.2,0-0.4,0-0.6,0c-0.5,0-1,0.1-1.3,0.2c-0.3,0.2-0.6,0.4-0.7,0.6c-0.2,0.3-0.3,0.6-0.3,1
			c0,0.4-0.1,0.8-0.1,1.3v3.9h-2.9L40.2,14.9L40.2,14.9z"/>
		<path d="M55.9,22.6c-0.5,0.6-1.1,1.1-1.8,1.4c-0.7,0.3-1.4,0.5-2.2,0.5c-0.7,0-1.4-0.1-2-0.4c-0.6-0.2-1.2-0.6-1.6-1
			c-0.5-0.4-0.8-0.9-1.1-1.6c-0.3-0.6-0.4-1.3-0.4-2c0-0.7,0.1-1.4,0.4-2c0.3-0.6,0.6-1.1,1.1-1.6c0.5-0.4,1-0.8,1.6-1
			c0.6-0.2,1.3-0.4,2-0.4c0.7,0,1.3,0.1,1.8,0.4c0.5,0.2,1,0.6,1.4,1c0.4,0.4,0.7,0.9,0.9,1.6c0.2,0.6,0.3,1.3,0.3,2v0.9h-6.7
			c0.1,0.5,0.4,1,0.7,1.3c0.4,0.3,0.9,0.5,1.4,0.5c0.5,0,0.9-0.1,1.2-0.3c0.3-0.2,0.6-0.5,0.9-0.8L55.9,22.6z M53.4,18.5
			c0-0.5-0.2-0.9-0.5-1.3c-0.3-0.4-0.8-0.5-1.3-0.5c-0.3,0-0.6,0-0.9,0.2c-0.2,0.1-0.5,0.2-0.6,0.4c-0.2,0.2-0.3,0.4-0.4,0.5
			c-0.1,0.2-0.2,0.4-0.2,0.7L53.4,18.5L53.4,18.5z"/>
		<path d="M57.7,14.9h2.7v1.2h0c0.1-0.2,0.3-0.3,0.5-0.5c0.2-0.2,0.4-0.3,0.7-0.5c0.2-0.1,0.5-0.3,0.8-0.4c0.3-0.1,0.6-0.1,0.9-0.1
			c0.7,0,1.3,0.1,1.9,0.4c0.6,0.2,1.1,0.6,1.4,1c0.4,0.4,0.7,0.9,0.9,1.5s0.3,1.2,0.3,2c0,0.7-0.1,1.3-0.3,1.9
			c-0.2,0.6-0.5,1.1-0.9,1.6c-0.4,0.5-0.8,0.8-1.3,1.1c-0.5,0.3-1.1,0.4-1.8,0.4c-0.6,0-1.2-0.1-1.7-0.3c-0.5-0.2-0.9-0.5-1.3-0.9h0
			v5.4h-2.9L57.7,14.9L57.7,14.9z M60.3,19.6c0,0.7,0.2,1.3,0.6,1.7c0.4,0.4,1,0.7,1.7,0.7c0.7,0,1.3-0.2,1.7-0.7
			c0.4-0.4,0.6-1,0.6-1.7c0-0.7-0.2-1.3-0.6-1.7c-0.4-0.4-1-0.7-1.7-0.7c-0.7,0-1.3,0.2-1.7,0.7C60.5,18.3,60.3,18.9,60.3,19.6z"/>
		<path d="M68.9,14.9h2.9v1.5h0c0.3-0.6,0.7-1,1.1-1.3c0.4-0.3,1-0.4,1.6-0.4c0.2,0,0.3,0,0.5,0c0.2,0,0.3,0,0.5,0.1v2.6
			c-0.2-0.1-0.4-0.1-0.6-0.2c-0.2,0-0.4,0-0.6,0c-0.5,0-1,0.1-1.3,0.2c-0.3,0.2-0.6,0.4-0.7,0.6c-0.2,0.3-0.3,0.6-0.3,1
			c0,0.4-0.1,0.8-0.1,1.3v3.9h-2.9L68.9,14.9L68.9,14.9z"/>
		<path d="M84.5,22.6c-0.5,0.6-1.1,1.1-1.8,1.4c-0.7,0.3-1.4,0.5-2.2,0.5c-0.7,0-1.4-0.1-2-0.4s-1.2-0.6-1.6-1
			c-0.5-0.4-0.8-0.9-1.1-1.6c-0.3-0.6-0.4-1.3-0.4-2c0-0.7,0.1-1.4,0.4-2c0.3-0.6,0.6-1.1,1.1-1.6c0.5-0.4,1-0.8,1.6-1
			c0.6-0.2,1.3-0.4,2-0.4c0.7,0,1.3,0.1,1.8,0.4c0.5,0.2,1,0.6,1.4,1c0.4,0.4,0.7,0.9,0.9,1.6c0.2,0.6,0.3,1.3,0.3,2v0.9h-6.7
			c0.1,0.5,0.4,1,0.7,1.3c0.4,0.3,0.9,0.5,1.4,0.5c0.5,0,0.9-0.1,1.2-0.3c0.3-0.2,0.6-0.5,0.9-0.8L84.5,22.6z M82.1,18.5
			c0-0.5-0.2-0.9-0.5-1.3c-0.3-0.4-0.8-0.5-1.3-0.5c-0.3,0-0.6,0-0.9,0.2c-0.2,0.1-0.5,0.2-0.6,0.4c-0.2,0.2-0.3,0.4-0.4,0.5
			c-0.1,0.2-0.2,0.4-0.2,0.7L82.1,18.5L82.1,18.5z"/>
		<path d="M91.3,17.6c-0.4-0.5-1-0.8-1.7-0.8c-0.2,0-0.5,0.1-0.7,0.2s-0.4,0.3-0.4,0.6c0,0.2,0.1,0.4,0.4,0.5
			c0.2,0.1,0.5,0.2,0.9,0.3c0.4,0.1,0.7,0.2,1.2,0.3c0.4,0.1,0.8,0.2,1.2,0.5c0.4,0.2,0.7,0.5,0.9,0.8c0.2,0.4,0.4,0.8,0.4,1.4
			c0,0.6-0.1,1.1-0.4,1.5c-0.3,0.4-0.6,0.7-1,0.9c-0.4,0.2-0.9,0.4-1.4,0.5c-0.5,0.1-1,0.2-1.5,0.2c-0.7,0-1.3-0.1-2-0.3
			c-0.7-0.2-1.2-0.5-1.7-1l1.8-2c0.3,0.3,0.6,0.6,0.9,0.8c0.3,0.2,0.7,0.3,1.1,0.3c0.3,0,0.6,0,0.9-0.2c0.3-0.1,0.4-0.3,0.4-0.5
			c0-0.2-0.1-0.4-0.4-0.5s-0.5-0.2-0.9-0.3c-0.4-0.1-0.8-0.2-1.2-0.3c-0.4-0.1-0.8-0.2-1.2-0.4c-0.4-0.2-0.7-0.5-0.9-0.8
			c-0.2-0.4-0.4-0.8-0.4-1.4c0-0.5,0.1-1,0.3-1.4c0.2-0.4,0.5-0.7,0.9-1c0.4-0.3,0.8-0.4,1.3-0.6c0.5-0.1,1-0.2,1.4-0.2
			c0.6,0,1.2,0.1,1.9,0.3c0.6,0.2,1.2,0.5,1.6,1L91.3,17.6z"/>
		<path d="M103.1,22.6c-0.5,0.6-1.1,1.1-1.8,1.4c-0.7,0.3-1.4,0.5-2.2,0.5c-0.7,0-1.4-0.1-2-0.4c-0.6-0.2-1.2-0.6-1.6-1
			c-0.5-0.4-0.8-0.9-1.1-1.6c-0.3-0.6-0.4-1.3-0.4-2c0-0.7,0.1-1.4,0.4-2s0.6-1.1,1.1-1.6c0.5-0.4,1-0.8,1.6-1
			c0.6-0.2,1.3-0.4,2-0.4c0.7,0,1.3,0.1,1.8,0.4s1,0.6,1.4,1c0.4,0.4,0.7,0.9,0.9,1.6c0.2,0.6,0.3,1.3,0.3,2v0.9h-6.7
			c0.1,0.5,0.4,1,0.7,1.3c0.4,0.3,0.9,0.5,1.4,0.5c0.5,0,0.9-0.1,1.2-0.3c0.3-0.2,0.6-0.5,0.9-0.8L103.1,22.6z M100.7,18.5
			c0-0.5-0.2-0.9-0.5-1.3c-0.3-0.4-0.8-0.5-1.3-0.5c-0.3,0-0.6,0-0.9,0.2c-0.2,0.1-0.5,0.2-0.6,0.4c-0.2,0.2-0.3,0.4-0.4,0.5
			c-0.1,0.2-0.2,0.4-0.2,0.7L100.7,18.5L100.7,18.5z"/>
		<path d="M104.7,14.9h2.8v1.3h0c0.1-0.2,0.2-0.4,0.4-0.5c0.2-0.2,0.4-0.3,0.6-0.5c0.2-0.1,0.5-0.3,0.8-0.4c0.3-0.1,0.6-0.1,1-0.1
			c0.7,0,1.3,0.1,1.8,0.3c0.4,0.2,0.8,0.5,1.1,0.9c0.2,0.4,0.4,0.9,0.5,1.4c0.1,0.5,0.1,1.1,0.1,1.8v5.2h-2.9v-4.6
			c0-0.3,0-0.5,0-0.8s-0.1-0.5-0.2-0.8c-0.1-0.2-0.2-0.4-0.4-0.6c-0.2-0.2-0.5-0.2-0.9-0.2c-0.4,0-0.7,0.1-0.9,0.2
			c-0.2,0.1-0.4,0.3-0.5,0.5c-0.1,0.2-0.2,0.5-0.2,0.8c0,0.3-0.1,0.6-0.1,0.9v4.7h-2.9L104.7,14.9L104.7,14.9z"/>
		<path d="M121.4,17.2h-2.5v3.1c0,0.3,0,0.5,0,0.7c0,0.2,0.1,0.4,0.2,0.5c0.1,0.2,0.2,0.3,0.4,0.4c0.2,0.1,0.4,0.1,0.7,0.1
			c0.2,0,0.4,0,0.6,0c0.2,0,0.4-0.1,0.6-0.2v2.4c-0.3,0.1-0.7,0.2-1,0.2c-0.4,0-0.7,0.1-1,0.1c-0.5,0-0.9,0-1.3-0.2
			c-0.4-0.1-0.8-0.3-1.1-0.5c-0.3-0.2-0.5-0.5-0.7-0.9c-0.2-0.4-0.3-0.8-0.3-1.3v-4.5h-1.8v-2.3h1.8v-2.8h2.9v2.8h2.5L121.4,17.2
			L121.4,17.2z"/>
		<path d="M128.1,23.1L128.1,23.1c-0.4,0.5-0.8,0.9-1.3,1.1c-0.5,0.2-1.1,0.3-1.7,0.3c-0.4,0-0.9-0.1-1.3-0.2
			c-0.4-0.1-0.8-0.3-1.1-0.5c-0.3-0.2-0.5-0.5-0.7-0.9c-0.2-0.4-0.3-0.8-0.3-1.3c0-0.5,0.1-1,0.3-1.4c0.2-0.4,0.5-0.7,0.8-0.9
			c0.3-0.2,0.7-0.4,1.2-0.6s0.9-0.2,1.4-0.3c0.5-0.1,0.9-0.1,1.4-0.1c0.5,0,0.9,0,1.3,0c0-0.5-0.2-0.9-0.5-1.2s-0.8-0.5-1.3-0.5
			c-0.5,0-0.9,0.1-1.3,0.3c-0.4,0.2-0.7,0.5-1.1,0.8l-1.5-1.6c0.5-0.5,1.2-0.9,1.9-1.1c0.7-0.2,1.5-0.4,2.2-0.4
			c0.9,0,1.5,0.1,2.1,0.3c0.5,0.2,1,0.5,1.3,0.9s0.5,0.9,0.7,1.5c0.1,0.6,0.2,1.3,0.2,2.1v4.8h-2.7L128.1,23.1L128.1,23.1
			L128.1,23.1z M127.3,20.1c-0.2,0-0.5,0-0.8,0s-0.6,0.1-0.9,0.2c-0.3,0.1-0.5,0.2-0.8,0.4c-0.2,0.2-0.3,0.4-0.3,0.7
			c0,0.4,0.2,0.6,0.4,0.8c0.3,0.2,0.6,0.2,0.9,0.2c0.3,0,0.5,0,0.8-0.1c0.3-0.1,0.5-0.2,0.7-0.3c0.2-0.1,0.4-0.3,0.5-0.5
			c0.1-0.2,0.2-0.5,0.2-0.8v-0.6L127.3,20.1L127.3,20.1z"/>
		<path d="M131.9,14.9h2.8v1.3h0c0.1-0.2,0.2-0.4,0.4-0.5c0.2-0.2,0.4-0.3,0.6-0.5c0.2-0.1,0.5-0.3,0.8-0.4c0.3-0.1,0.6-0.1,1-0.1
			c0.7,0,1.2,0.1,1.7,0.4c0.5,0.3,0.9,0.7,1.1,1.3c0.3-0.6,0.7-1,1.2-1.3c0.5-0.3,1.1-0.4,1.8-0.4c0.6,0,1.2,0.1,1.6,0.3
			c0.4,0.2,0.8,0.5,1,0.9c0.2,0.4,0.4,0.8,0.5,1.3c0.1,0.5,0.2,1,0.2,1.6v5.5h-2.9v-5.4c0-0.4-0.1-0.8-0.3-1.1
			c-0.2-0.3-0.5-0.5-1-0.5c-0.3,0-0.6,0.1-0.8,0.2c-0.2,0.1-0.4,0.3-0.5,0.5c-0.1,0.2-0.2,0.4-0.3,0.7c-0.1,0.3-0.1,0.5-0.1,0.8v4.9
			h-2.9v-5c0-0.2,0-0.4,0-0.6c0-0.2-0.1-0.5-0.1-0.7c-0.1-0.2-0.2-0.4-0.4-0.5s-0.4-0.2-0.8-0.2c-0.4,0-0.7,0.1-0.9,0.2
			c-0.2,0.1-0.4,0.3-0.5,0.5c-0.1,0.2-0.2,0.5-0.2,0.8c0,0.3-0.1,0.6-0.1,0.9v4.7h-2.9L131.9,14.9L131.9,14.9z"/>
		<path d="M156.8,22.6c-0.5,0.6-1.1,1.1-1.8,1.4c-0.7,0.3-1.4,0.5-2.2,0.5c-0.7,0-1.4-0.1-2-0.4c-0.6-0.2-1.2-0.6-1.6-1
			c-0.5-0.4-0.8-0.9-1.1-1.6c-0.3-0.6-0.4-1.3-0.4-2c0-0.7,0.1-1.4,0.4-2c0.3-0.6,0.6-1.1,1.1-1.6c0.5-0.4,1-0.8,1.6-1
			c0.6-0.2,1.3-0.4,2-0.4c0.7,0,1.3,0.1,1.8,0.4c0.5,0.2,1,0.6,1.4,1c0.4,0.4,0.7,0.9,0.9,1.6c0.2,0.6,0.3,1.3,0.3,2v0.9h-6.7
			c0.1,0.5,0.4,1,0.7,1.3c0.4,0.3,0.9,0.5,1.4,0.5c0.5,0,0.9-0.1,1.2-0.3c0.3-0.2,0.6-0.5,0.9-0.8L156.8,22.6z M154.3,18.5
			c0-0.5-0.2-0.9-0.5-1.3c-0.3-0.4-0.8-0.5-1.3-0.5c-0.3,0-0.6,0-0.9,0.2c-0.2,0.1-0.5,0.2-0.6,0.4c-0.2,0.2-0.3,0.4-0.4,0.5
			c-0.1,0.2-0.2,0.4-0.2,0.7L154.3,18.5L154.3,18.5z"/>
		<path d="M166.6,17.9c-0.1-0.2-0.4-0.4-0.6-0.5c-0.3-0.1-0.5-0.2-0.8-0.2c-0.7,0-1.3,0.2-1.7,0.7c-0.4,0.4-0.6,1-0.6,1.7
			c0,0.7,0.2,1.3,0.6,1.7c0.4,0.4,1,0.7,1.7,0.7c0.3,0,0.6-0.1,0.8-0.2c0.2-0.1,0.4-0.3,0.6-0.5l1.9,2c-0.4,0.5-1,0.8-1.6,1
			c-0.6,0.2-1.2,0.3-1.7,0.3c-0.7,0-1.4-0.1-2-0.4c-0.6-0.2-1.2-0.6-1.6-1c-0.5-0.4-0.8-0.9-1.1-1.6c-0.3-0.6-0.4-1.3-0.4-2
			c0-0.7,0.1-1.4,0.4-2s0.6-1.1,1.1-1.6c0.5-0.4,1-0.8,1.6-1c0.6-0.2,1.3-0.4,2-0.4c0.5,0,1.1,0.1,1.7,0.3c0.6,0.2,1.1,0.5,1.6,1
			L166.6,17.9z"/>
		<path d="M169.2,9.7h2.9v14.6h-2.9V9.7z"/>
		<path d="M159.3,20.9c-0.1,0-0.2,0-0.3,0.1c-0.2,0.1-0.4,0.2-0.6,0.4c-0.2,0.2-0.3,0.4-0.4,0.6c-0.1,0.2-0.1,0.4-0.1,0.7
			c0,0.2,0,0.5,0.1,0.7c0.1,0.2,0.2,0.4,0.4,0.6s0.4,0.3,0.6,0.4c0.2,0.1,0.4,0.1,0.7,0.1c0.2,0,0.5,0,0.7-0.1
			c0.2-0.1,0.4-0.2,0.6-0.4c0,0,0,0,0.1-0.1C160.2,23,159.6,22,159.3,20.9z"/>
	</g>
</g>
</svg>
