<?xml version="1.0" encoding="utf-8"?>
<!-- Generator: Adobe Illustrator 21.0.0, SVG Export Plug-In . SVG Version: 6.00 Build 0)  -->
<svg version="1.1" id="Capa_1" xmlns="http://www.w3.org/2000/svg" xmlns:xlink="http://www.w3.org/1999/xlink" x="0px" y="0px"
	 viewBox="0 0 180.1 62.2" style="enable-background:new 0 0 180.1 62.2;" xml:space="preserve">
<g>
	<path d="M141.2,6c1.1,1,2.2,1.6,12.4,6.3c9,4.2,11.8,5.5,14,6.6c0.9,0.5,2.2,1.1,2.9,1.4s1.8,0.9,2.6,1.2c1.5,0.7,1.7,0.8,1.7,0.5
		c0-0.1,0-0.2-0.1-0.2c-0.1,0-2.8-1.8-6.2-3.9c-13.7-8.5-17.3-10.8-22-13.6c-2-1.2-4.3-2.6-5.2-3.2c-1.4-0.9-1.6-1-1.8-1
		c-0.2,0-0.2,0-0.3,0.1c-0.1,0.2,0,1.7,0.2,2.4C139.7,4,140.4,5.3,141.2,6z"/>
	<path d="M139.8,14.6c0.8,0.8,1.6,1.3,2.7,1.7c0.3,0.1,3.2,0.9,6.6,1.8c14.8,3.9,23.9,6.3,27.6,7.3c1.8,0.5,2,0.5,2.1,0.3
		c0-0.1,0-0.2-0.1-0.2c-0.1-0.1-9.4-3.7-29.9-11.5c-4.5-1.7-8.7-3.3-9.3-3.5c-1.2-0.5-1.5-0.5-1.5-0.3c-0.1,0.3,0.2,1.8,0.5,2.6
		C138.8,13.4,139.2,13.9,139.8,14.6z"/>
	<path d="M25.6,33.2c-1.1-1.1-2.4-1.9-4.3-2.6c-0.4-0.1-2.7-0.8-5.1-1.5c-2.4-0.7-4.6-1.3-4.8-1.4c-0.9-0.3-1.8-0.8-2.2-1.3
		c-0.7-0.7-1-1.8-0.8-2.8c0.2-1.6,1-2.6,2.5-3c0.9-0.3,0.9-0.3,5.9-0.3c5,0,4.9,0,5.9-0.3c2-0.5,3.2-1.8,3.7-3.7
		c0.1-0.5,0.2-1.2,0.2-1.6v-0.3l-6.5,0c-3.6,0-6.9,0-7.4,0C8.9,14.6,6,15.7,4,17.6c-1.4,1.4-2.2,3-2.5,4.9c-0.1,0.7-0.1,2.4,0,3.2
		c0.3,1.9,1,3.3,2.4,4.7c1.3,1.3,2.9,2.2,5.2,3c0.5,0.2,2.6,0.8,4.7,1.3c2.1,0.6,3.9,1.1,4.1,1.1c1.3,0.5,2.2,1.2,2.6,2.2
		c0.3,0.7,0.4,1.2,0.4,2c0,0.7-0.1,1.1-0.4,1.7c-0.5,1.1-1.7,1.9-3.4,2.1c-0.9,0.1-2,0.2-8.2,0.2c-3.4,0-6.2,0-6.3,0.1
		c-0.1,0-0.1,0.2-0.1,3v2.9H9c6.5,0,7.9,0,9.1-0.2c5.6-0.7,9.2-3.9,9.7-8.5c0.1-0.7,0-2.6-0.1-3.4C27.4,35.7,26.8,34.4,25.6,33.2z"
		/>
	<path d="M59.6,16.5c-0.3-0.4-1-1.1-1.4-1.4c-0.9-0.5-2.2-0.8-3.6-0.8h-0.3v12.5c0,13.7,0,12.9-0.3,13.8c-0.8,2.3-3.4,3.6-6.9,3.5
		c-1.4,0-2.5-0.3-3.5-0.8c-0.7-0.3-1-0.5-1.4-0.9C41.5,41.8,41,41,40.8,40c-0.1-0.3-0.1-1.5-0.1-10.2c0-6.6-0.1-10-0.1-10.4
		c-0.1-1.5-0.6-2.7-1.5-3.5c-0.9-0.9-2-1.3-3.6-1.5c-0.3,0-0.7-0.1-0.9-0.1h-0.3v13.4c0,11.6,0,13.5,0.1,14c0.3,1.9,1,3.5,2.4,4.9
		c2,2,4.8,3.1,8.5,3.5c0.9,0.1,3.1,0.1,4,0c5.1-0.5,8.8-2.6,10.4-5.9c0.3-0.5,0.5-1.3,0.7-2l0.1-0.5v-11c0-10.3,0-11-0.1-11.5
		C60.3,18,60,17.1,59.6,16.5z"/>
	<path d="M90.6,15l0-0.7l-4.8,0c-2.6,0-5.1,0-5.4,0.1c-2.7,0.2-5.2,1.1-7,2.5c-0.6,0.4-1.5,1.4-2,2c-1.3,1.8-2.1,3.8-2.5,6.6
		c-0.1,0.6-0.1,1.7-0.1,12.5l0,11.8H72h3.2l0-11.7c0-12.9,0-11.8,0.3-13c0.6-2.3,2.2-3.9,4.5-4.4c0.9-0.2,1.3-0.3,3.6-0.3
		c2.3,0,2.6-0.1,3.5-0.3c2-0.5,3.2-1.8,3.5-4C90.5,15.8,90.5,15.4,90.6,15z"/>
	<path d="M105.7,14.4c-1.1,0.1-2.7,0.3-3.7,0.7c-6.2,1.9-10.4,7.2-11.4,14.3c-0.2,1.5-0.3,3.4-0.2,4.9c0.1,1.9,0.3,3.1,0.6,4.6
		c0.8,3.2,2.1,5.6,4.1,7.6c2.2,2.2,4.8,3.4,8.2,3.8c0.8,0.1,3,0.1,3.8,0c1.6-0.2,3-0.6,4.3-1.3c1.6-0.8,3-2,4-3.4
		c0.2-0.3,0.2-0.3,0.3-0.2c0,0.1,0.1,0.3,0.1,0.5c0.3,1.2,0.9,2.2,1.7,2.8c0.8,0.6,2.1,0.9,3.9,0.9l0.7,0V32.1V14.3l-8,0
		C109.6,14.4,105.9,14.4,105.7,14.4z M115.2,36.4c-0.3,3-1.7,5.4-3.8,6.8c-3.2,2.1-8.2,1.8-10.9-0.8c-1.6-1.5-2.6-3.9-3-7
		c-0.1-1.1-0.1-4,0-5c0.4-3.6,1.5-6,3.2-7.8c1.5-1.5,3.4-2.3,5.7-2.4c0.4,0,2.5,0,4.7,0c3,0,4,0,4,0.1
		C115.3,20.3,115.3,35.6,115.2,36.4z"/>
	<path d="M181.3,27.9c-0.1,0-3.6-0.6-7.9-1.4c-23.1-4.1-32.1-5.7-32.3-5.7c-0.1,0-0.2,0-0.2,0c-0.1,0.1,0,0.5,0.1,0.8
		c0.6,1.7,2,3.1,3.5,3.9c0.4,0.2,1.1,0.4,1.4,0.5c0.1,0,6.4,0.4,14,0.9c7.6,0.5,15.5,1,17.7,1.2c2.1,0.1,3.9,0.2,3.9,0.2
		c0,0,0.1-0.1,0.1-0.2C181.4,27.9,181.4,27.9,181.3,27.9z"/>
	<path d="M177.3,30.1c-1.4,0-7.9,0-14.4,0c-6.5,0-12.2,0.1-12.8,0.1l-1,0l0,0.2c-0.1,0.6,1.1,2.1,2.2,2.8c0.7,0.5,1.5,0.7,2.3,0.8
		c0.5,0-0.7,0.2,18.6-2.5c8.1-1.1,7.7-1.1,7.8-1.2c0,0,0-0.1,0-0.2C180,30.1,179.9,30.1,177.3,30.1z"/>
	<path d="M178.1,32.5c-0.1,0-0.3,0-0.6,0.1c-0.6,0.2-4.6,1.2-9.3,2.4c-3.8,1-7.1,1.8-10.4,2.7c-0.7,0.2-1.4,0.4-1.4,0.4
		c-0.1,0-0.2,0.2-0.2,0.3c0,0.2,0.8,1.5,1.2,1.9c0.4,0.5,0.6,0.5,1.3,0.5c0.5,0,0.7,0,1-0.1c1.2-0.4,16.3-6.8,18-7.6
		c0.5-0.2,0.5-0.2,0.5-0.4C178.2,32.5,178.2,32.5,178.1,32.5z"/>
	<path d="M176,35.8c0,0-0.9,0.5-1.9,1.1c-3.2,2-8.6,5.2-10.5,6.3c-2.5,1.5-3.4,2-3.5,2.1c0,0.1,0.2,2,0.3,2.2c0,0.1,0.1,0.3,0.2,0.4
		c0.2,0.2,0.2,0.2,0.5,0.2c0.4,0,0.7-0.1,1.3-0.6c0.6-0.4,2.8-2.2,8.9-7.3c3.9-3.2,4.9-4.1,4.9-4.2C176.2,35.9,176.1,35.8,176,35.8z
		"/>
	<path d="M170.1,44.5c-0.3,0.3-1.3,1.1-5.2,4.4c-1.8,1.6-3.5,3-3.8,3.2c-0.6,0.5-0.7,0.7-0.9,1.7c-0.1,0.4-0.3,1.1-0.5,1.6
		c-0.3,0.9-0.3,1.1-0.1,1.1c0.1,0,0.2,0,0.6-0.5c1.1-1.1,6.7-7.3,9.1-10c1.1-1.2,1.2-1.3,1.2-1.5C170.6,44.3,170.4,44.3,170.1,44.5z
		"/>
	<path d="M145.5,55.6c2.7-0.7,5.6-1.8,8.2-2.9c1-0.4,2.7-1.3,3.3-1.6c0.3-0.1,0.3-0.2,0.3-0.3c0-0.1,0-0.2-0.1-0.2
		c-0.1,0-0.6,0.1-1.1,0.3c-2.4,0.8-6.7,1.8-12,2.7c-4,0.7-6.2,0.9-10.3,1.2c-3.2,0.2-2.9,0.2-2.9,0.4c0,0.1,0.1,0.2,0.3,0.5
		c0.8,0.8,2,1.3,3.4,1.5c0.7,0.1,2.6,0.1,3.6,0C140.1,56.9,142.5,56.4,145.5,55.6z"/>
	<path d="M157.5,52.8c-0.1,0-0.3,0.1-0.4,0.2c-0.4,0.3-1.3,0.8-2.2,1.3c-4.2,2.2-10.8,4.4-16.9,5.5c-0.5,0.1-1,0.2-1.1,0.2
		c0,0-0.1,0.1-0.1,0.2c0,0.2,0.2,0.4,0.8,0.7c2,1,5.7,0.7,9.2-0.7c4-1.6,7.7-3.8,9.8-5.9c0.8-0.7,1-1.1,1-1.3
		C157.7,52.8,157.7,52.8,157.5,52.8z"/>
	<path d="M156.8,56.7c-0.1,0-0.2,0-0.3,0.1c-0.2,0.2-1.4,1.2-1.9,1.5c-1.7,1.2-3.9,2.3-6,3.1c-0.8,0.3-0.8,0.3-0.8,0.5
		c0,0.2,0,0.3,0.5,0.4c0.4,0.1,0.5,0.1,1.3,0.1c1,0,1.4-0.1,2.3-0.4c0.6-0.2,1.7-0.7,2.1-1c0.9-0.6,1.6-1.4,2.3-2.6
		c0.4-0.7,0.7-1.5,0.7-1.7C156.9,56.7,156.9,56.7,156.8,56.7z"/>
</g>
</svg>
