<?xml version="1.0" encoding="utf-8"?>
<!-- Generator: Adobe Illustrator 21.0.0, SVG Export Plug-In . SVG Version: 6.00 Build 0)  -->
<svg version="1.1" id="Capa_1" xmlns="http://www.w3.org/2000/svg" xmlns:xlink="http://www.w3.org/1999/xlink" x="0px" y="0px"
	 viewBox="0 0 182 38" style="enable-background:new 0 0 182 38;" xml:space="preserve">
<g id="xxDxBx_1_">
	<g>
		<path d="M80.7,18C80.7,18,80.7,18,80.7,18c4.6,1.5,6,6,5.8,9.8c-0.3,5.5-3.3,8.6-9.1,9.4c-1.1,0.2-2.3,0.2-3.4,0.2
			c-6.3,0-12.6,0-18.9,0c-0.2,0-0.4,0-0.6,0c-2-0.1-2.6-0.7-2.6-2.7c0-9.7,0-19.5,0-29.2c0-0.8,0-1.6,0-2.4c0-1.4,0.6-2.1,2-2.4
			c0.4-0.1,0.9-0.1,1.3-0.1c6,0,12-0.1,18,0c2.1,0,4.1,0.5,6.1,1.1C82.4,2.6,84,4.8,84.5,8c0.4,3,0.1,5.9-1.9,8.3
			C82.1,16.9,81.3,17.4,80.7,18z M59.5,31.5c0.1,0.1,0.2,0.1,0.3,0.1c4.9,0,9.7,0.1,14.6,0c3-0.1,4.3-1.5,4.4-4.5c0-0.4,0-0.8,0-1.2
			c-0.1-2.7-1.3-4.1-4-4.2c-3.9-0.2-7.8-0.1-11.7-0.1c-0.5,0-1,0.1-1.4,0.3c-1.4,0.4-2.1,1.2-2.1,2.6C59.4,26.8,59.5,29.1,59.5,31.5
			z M59.5,15.9c0.4,0,0.7,0,1,0c3.8,0,7.6,0,11.3,0c0.6,0,1.1-0.1,1.7-0.1c2.1-0.3,3.2-1.5,3.3-3.5c0.1-0.8,0.1-1.6,0-2.4
			c-0.2-1.9-1.3-3-3.2-3.3c-0.7-0.1-1.4-0.2-2.1-0.2c-3.7,0-7.5,0-11.2,0c-0.3,0-0.6,0-0.9,0C59.5,9.6,59.5,12.7,59.5,15.9z"/>
		<path d="M153.5,37.4c-2.3,0-4.6,0-6.8,0c-0.3,0-0.6-0.5-0.8-0.9c-0.1-0.2,0-0.5,0-0.8c0-10.6,0-21.2,0-31.8c0-2.5,0.8-3.3,3.2-3.3
			c6.1,0,12.3,0,18.4,0c2.4,0,4.7,0.5,7,1.4c2.7,1.1,4.4,3.1,5.1,5.9c0.7,2.7,0.7,5.4,0,8.2c-0.8,3.2-2.9,5.1-5.9,6.2
			c-0.1,0.1-0.3,0.1-0.4,0.1c-0.1,0-0.3,0.1-0.5,0.2c0.2,0.3,0.3,0.6,0.5,0.9c2.5,4.3,5,8.5,7.5,12.8c0.6,1,0.5,1.2-0.6,1.2
			c-2,0-3.9,0-5.9,0c-0.9,0-1.4-0.3-1.8-1c-2.2-4.1-4.5-8.2-6.8-12.3c-0.3-0.5-0.6-0.7-1.2-0.7c-2.2,0-4.4,0-6.5,0
			c-0.5,0-1,0-1.4,0.1c-2,0.4-2.8,1.3-2.8,3.3C153.5,30.3,153.5,33.8,153.5,37.4z M153.5,17.6c4.4,0,8.6,0,12.9,0
			c0.8,0,1.6-0.1,2.4-0.2c1.5-0.2,2.6-1,3-2.5c0.6-1.8,0.5-3.7,0-5.5c-0.4-1.3-1.2-2.2-2.6-2.5c-0.7-0.2-1.4-0.3-2.1-0.3
			c-4.4,0-8.8,0-13.2,0c-0.2,0-0.3,0-0.6,0.1C153.5,10.3,153.5,13.9,153.5,17.6z"/>
		<path d="M132.7,0.6c-0.8,1.9-1.4,3.6-2.1,5.2c-0.3,0.7-0.9,0.8-1.6,0.8c-6.4,0-12.9,0-19.3,0c-0.4,0-0.7,0-1.2,0
			c0,3.1,0,6.1,0,9.3c5.9,0,11.8,0,17.8,0c-0.1,0.4-0.2,0.7-0.3,0.9c-0.5,1.2-1,2.4-1.4,3.6c-0.3,1-0.9,1.3-2,1.3
			c-3.2,0-6.5,0-9.7,0c-0.9,0-1.8,0.1-2.7,0.4c-1,0.3-1.7,1-1.8,2.1c-0.1,2.4,0,4.8,0,7.3c8,0,15.9,0,24,0c-0.1,0.3-0.1,0.5-0.1,0.7
			c-0.6,1.5-1.2,2.9-1.8,4.4c-0.2,0.6-0.6,0.9-1.3,0.9c-8.7,0-17.4,0-26.1,0c-1.9,0-2.5-0.7-2.5-2.6c0-10.4,0-20.9,0-31.3
			c0-2,0.7-2.8,2.7-2.9c0.4,0,0.8,0,1.2,0c8.9,0,17.8,0,26.8,0C131.8,0.6,132.1,0.6,132.7,0.6z"/>
		<path d="M8.6,0.6c0,0.5,0,0.8,0,1.2c0,7.1,0,14.2,0,21.2c0,0.7,0.1,1.3,0.2,2c0.7,3.9,2.7,6,6.7,6.7c2.4,0.4,4.8,0.4,7.1-0.1
			c3.6-0.8,5.7-2.8,6.2-6.5c0.2-1,0.2-2.1,0.2-3.2c0-6.7,0-13.3,0-20c0-1.3,0.1-1.4,1.4-1.4c2.1,0,4.2,0,6.4,0C36.9,0.8,37,1,37,1.2
			c0,7.6,0,15.2-0.1,22.9c0,2.1-0.5,4.2-1.4,6.2c-1.4,3.2-3.9,5.2-7.1,6.3c-6.2,2.2-12.4,2.2-18.6,0.1C4.4,34.9,1.6,30.9,1,25.3
			c-0.1-1.1-0.2-2.1-0.2-3.2c0-6.7,0-13.4,0-20.1c0-1.4,0.1-1.5,1.5-1.5C4.4,0.6,6.4,0.6,8.6,0.6z"/>
	</g>
</g>
</svg>
