<?xml version="1.0" encoding="utf-8"?>
<!-- Generator: Adobe Illustrator 21.0.0, SVG Export Plug-In . SVG Version: 6.00 Build 0)  -->
<svg version="1.1" id="Capa_1" xmlns="http://www.w3.org/2000/svg" xmlns:xlink="http://www.w3.org/1999/xlink" x="0px" y="0px"
	 viewBox="0 0 112 112" style="enable-background:new 0 0 112 112;" xml:space="preserve">
<g>
	<path d="M58.7,52.1c-0.4-3.2-0.8-5.1-3.7-4.2c-2.9,0.9-2.8,2.9-2.5,6.1l0.7,5.9c0.4,3.2,0.8,5,3.7,4.1c2.9-0.9,2.8-2.9,2.5-6.1
		L58.7,52.1z"/>
	<path d="M109.4,39.2C100.1,9.7,68.7-6.7,39.2,2.6C9.7,11.9-6.7,43.3,2.6,72.8c9.3,29.5,40.7,45.9,70.2,36.6
		C102.3,100.1,118.7,68.7,109.4,39.2z M43.7,74.8l-5.5,1.7c-0.7,0.2-1.2,0-1.6-0.6l-5.1-8.9c-0.2-0.4-0.5-0.3-0.5,0.1l0.9,10.2
		c0,0.7-0.3,1.2-1,1.4l-5.5,1.7c-0.7,0.2-1.3,0-1.6-0.6L11.2,56.6c-0.4-0.8-0.2-1.4,0.6-1.6l4.6-1.4c0.7-0.2,1.3,0,1.6,0.6l7.3,15.5
		c0.2,0.4,0.5,0.3,0.5-0.1l-2.5-17c-0.1-0.7,0.3-1.2,1-1.4l3.3-1.1c0.7-0.2,1.3,0,1.6,0.6L37,66c0.2,0.4,0.5,0.3,0.5-0.1l-2.9-16.9
		c-0.1-0.7,0.3-1.2,1-1.4l4.6-1.4c0.8-0.3,1.3,0.1,1.4,0.9l3.1,26.4C44.8,74.1,44.4,74.6,43.7,74.8z M57.6,71.2
		c-9.2,2.9-10.6-4.2-10.9-6.9L45.6,54c-0.3-2.7-0.6-10.2,8.6-13.1c9.2-2.9,10.6,4.2,10.9,7l1.2,10.3C66.6,60.8,66.9,68.3,57.6,71.2z
		 M100.2,57.1l-4.6,1.4c-0.7,0.2-1.3,0-1.6-0.6l-7.3-15.5c-0.2-0.4-0.5-0.3-0.5,0.1l2.5,17c0.1,0.7-0.3,1.2-1,1.4l-3.4,1
		c-0.7,0.2-1.3,0-1.6-0.6L75,46c-0.2-0.4-0.5-0.3-0.5,0.1l2.9,16.9c0.1,0.7-0.3,1.2-1,1.4L71.9,66c-0.8,0.2-1.4-0.1-1.5-1l-3.1-26.4
		c-0.1-0.7,0.3-1.2,1-1.4l5.5-1.7c0.7-0.2,1.2,0,1.6,0.6l5.1,8.9c0.2,0.4,0.5,0.3,0.5-0.1l-0.9-10.2c0-0.7,0.3-1.2,1-1.4l5.5-1.7
		c0.7-0.2,1.3,0,1.6,0.6l12.6,23.4C101.2,56.2,101,56.8,100.2,57.1z"/>
</g>
</svg>
