<?xml version="1.0" encoding="utf-8"?>
<!-- Generator: Adobe Illustrator 21.0.0, SVG Export Plug-In . SVG Version: 6.00 Build 0)  -->
<svg version="1.1" id="Capa_1" xmlns="http://www.w3.org/2000/svg" xmlns:xlink="http://www.w3.org/1999/xlink" x="0px" y="0px"
	 viewBox="0 0 280.7 289.2" style="enable-background:new 0 0 280.7 289.2;" xml:space="preserve">
<style type="text/css">
	.st0{fill:#FC423E;}
</style>
<g>
	<path class="st0" d="M149.7,13.6c-18.2-18.2-47.6-18.2-65.8,0c-18.2,18.2-18.2,47.6,0,65.8l65.2,65.2L84,209.9
		c-18.2,18.2-18.2,47.6,0,65.8c9.1,9.1,21,13.6,32.9,13.6c11.9,0,23.8-4.5,32.9-13.6l131-131L149.7,13.6z"/>
	<path class="st0" d="M93.7,145.2c0-25.7-20.8-46.5-46.5-46.5h-0.7C20.8,98.7,0,119.5,0,145.2c0,25.7,20.8,46.5,46.5,46.5h0.7
		C72.9,191.7,93.7,170.8,93.7,145.2z"/>
</g>
</svg>
