<?xml version="1.0" encoding="utf-8"?>
<!-- Generator: Adobe Illustrator 21.0.0, SVG Export Plug-In . SVG Version: 6.00 Build 0)  -->
<svg version="1.1" id="Capa_1" xmlns="http://www.w3.org/2000/svg" xmlns:xlink="http://www.w3.org/1999/xlink" x="0px" y="0px"
	 viewBox="0 0 518 112" style="enable-background:new 0 0 518 112;" xml:space="preserve">
<style type="text/css">
	.st0{fill:#FF4036;}
	.st1{fill:#FFFFFF;}
</style>
<g>
	<g>
		<g>
			<path class="st0" d="M51.3,112c-4.6,0-9.2-1.7-12.7-5.2c-7-7-7-18.3,0-25.3l25.1-25.1L38.7,31.1c-7-7-7-18.3,0-25.3
				c7-7,18.3-7,25.3,0l50.5,50.5L64,106.7C60.5,110.2,55.9,112,51.3,112z"/>
		</g>
	</g>
</g>
<circle class="st0" cx="18.4" cy="56.5" r="17.9"/>
<g>
	<path class="st1" d="M132.3,27.4h13.9l9.9,40l10.8-38.8h11.9l10.7,38.8l10-40h13.9l-16.7,57.3h-11.9l-11.8-37.3L161,84.7h-11.9
		L132.3,27.4z"/>
	<path class="st1" d="M230.9,81.8c-4.7-2.7-8.2-6.3-10.5-10.9c-2.3-4.5-3.5-9.6-3.5-15.2c0-5.3,1.1-10.2,3.3-14.7
		c2.2-4.4,5.4-8,9.6-10.6c4.2-2.6,9.2-4,15-4c5.3,0,9.9,1.1,13.6,3.3c3.7,2.2,6.5,5.2,8.4,8.9c1.9,3.7,2.8,7.9,2.8,12.6
		c0,2.3-0.3,4.9-0.9,7.8h-37c0.8,5,2.7,8.8,6,11.3c3.2,2.5,7.1,3.7,11.6,3.7c6.2,0,11.9-1.6,17.2-4.7l0.7,12
		c-2.4,1.3-5.3,2.3-8.5,3.1c-3.2,0.8-6.8,1.2-10.6,1.2C241.3,85.9,235.6,84.5,230.9,81.8z M255.1,49.6c0-3-0.8-5.6-2.5-7.9
		c-1.7-2.3-4.3-3.4-7.8-3.4c-3.5,0-6.3,1-8.5,3.1c-2.1,2.1-3.6,4.8-4.4,8.2H255.1z"/>
	<path class="st1" d="M323,30.5c3.9,2.7,6.8,6.3,8.8,10.8c2,4.5,3,9.5,3,14.9c0,5.4-1,10.4-3,14.9c-2,4.5-4.9,8.1-8.8,10.8
		c-3.9,2.7-8.6,4-14,4c-6,0-11.5-1.6-16.4-4.9l-0.2,3.8h-13.3V0.5h14.2v31.2c4.7-3.4,9.9-5.2,15.7-5.2
		C314.5,26.5,319.2,27.9,323,30.5z M316.8,69.3c2.3-3.3,3.5-7.6,3.5-13.1c0-5.4-1.2-9.8-3.5-13.1c-2.3-3.3-5.6-4.9-9.8-4.9
		c-4.8,0-8.4,1.6-10.8,4.8c-2.4,3.2-3.6,7.6-3.6,13.2c0,5.6,1.2,10,3.6,13.2c2.4,3.2,6,4.8,10.8,4.8
		C311.2,74.2,314.5,72.5,316.8,69.3z"/>
	<path class="st1" d="M351.3,81.5c-2.6-2.9-3.9-6.5-3.9-10.6V39.1h-8.1l1.3-11.7h6.9V14.8l14.2-1.5v14.1h12.6v11.7h-12.6V65
		c0,3.1,0.2,5.2,0.5,6.4c0.3,1.2,1.1,1.9,2.2,2.3c1.1,0.3,3.1,0.5,6,0.5h3.9L373,85.9h-10.2C357.8,85.9,353.9,84.4,351.3,81.5z"/>
	<path class="st1" d="M383.5,27.4h13.3l0.3,6.1c1.7-1.9,3.8-3.6,6.5-5c2.6-1.4,5.4-2.2,8.3-2.2c0.9,0,1.8,0.1,2.5,0.2l-1,14
		c-1.5-0.4-3.1-0.6-4.9-0.6c-2.4,0-4.5,0.6-6.5,1.7c-2,1.1-3.4,2.5-4.2,4.1v39.1h-14.2V27.4z"/>
	<path class="st1" d="M430.9,81.8c-4.7-2.7-8.2-6.3-10.5-10.9c-2.3-4.5-3.5-9.6-3.5-15.2c0-5.3,1.1-10.2,3.3-14.7
		c2.2-4.4,5.4-8,9.6-10.6c4.2-2.6,9.2-4,15-4c5.3,0,9.9,1.1,13.6,3.3c3.7,2.2,6.5,5.2,8.4,8.9c1.9,3.7,2.8,7.9,2.8,12.6
		c0,2.3-0.3,4.9-0.9,7.8h-37c0.8,5,2.7,8.8,6,11.3c3.2,2.5,7.1,3.7,11.6,3.7c6.2,0,11.9-1.6,17.2-4.7l0.7,12
		c-2.4,1.3-5.3,2.3-8.5,3.1c-3.2,0.8-6.8,1.2-10.6,1.2C441.3,85.9,435.6,84.5,430.9,81.8z M455.1,49.6c0-3-0.8-5.6-2.5-7.9
		c-1.7-2.3-4.3-3.4-7.8-3.4c-3.5,0-6.3,1-8.5,3.1c-2.1,2.1-3.6,4.8-4.4,8.2H455.1z"/>
	<path class="st1" d="M485.5,84.8c-3-0.7-6.1-1.8-9.3-3.2l1.3-12.1c3.2,1.9,6.2,3.3,9,4.3c2.8,1,5.7,1.4,8.6,1.4
		c5.8,0,8.7-1.9,8.7-5.7c0-2.1-0.8-3.6-2.3-4.8c-1.5-1.1-4.3-2.4-8.2-4c-5.7-2.1-9.8-4.4-12.5-7c-2.7-2.6-4-6.2-4-10.7
		c0-5,1.9-9,5.7-12.1c3.8-3.1,9-4.6,15.5-4.6c6.5,0,12.4,1.5,17.8,4.5l-1.3,12.1c-2.9-2-5.6-3.5-8.2-4.6c-2.6-1.1-5.3-1.6-8.1-1.6
		c-2.4,0-4.3,0.5-5.7,1.5c-1.3,1-2,2.4-2,4.2c0,1.5,0.4,2.6,1.2,3.6s1.9,1.7,3.4,2.5c1.4,0.7,3.9,1.7,7.2,3c5.6,2.1,9.6,4.5,12,7
		c2.4,2.6,3.7,6,3.7,10.3c0,5.4-1.9,9.6-5.8,12.6c-3.9,3-9.4,4.5-16.6,4.5C491.9,85.9,488.5,85.5,485.5,84.8z"/>
</g>
</svg>
